<mxfile host="Electron" modified="2023-11-27T15:58:58.989Z" agent="Mozilla/5.0 (Windows NT 10.0; Win64; x64) AppleWebKit/537.36 (KHTML, like Gecko) draw.io/21.2.1 Chrome/112.0.5615.87 Electron/24.1.2 Safari/537.36" etag="_Tea-pcLxDtaOHZU2Eyh" version="21.2.1" type="device">
  <diagram id="C5RBs43oDa-KdzZeNtuy" name="Page-1">
    <mxGraphModel dx="2245" dy="828" grid="1" gridSize="10" guides="1" tooltips="1" connect="1" arrows="1" fold="1" page="1" pageScale="1" pageWidth="827" pageHeight="1169" background="#000000" math="0" shadow="0">
      <root>
        <mxCell id="WIyWlLk6GJQsqaUBKTNV-0" />
        <mxCell id="WIyWlLk6GJQsqaUBKTNV-1" parent="WIyWlLk6GJQsqaUBKTNV-0" />
        <mxCell id="CGCkJXNFXPT9NMbplaxq-0" value="&amp;lt;Классы&amp;gt;" style="rounded=0;whiteSpace=wrap;html=1;labelBackgroundColor=none;fillColor=#EEEEEE;strokeColor=#FFFFFF;fontColor=#1A1A1A;" parent="WIyWlLk6GJQsqaUBKTNV-1" vertex="1">
          <mxGeometry x="160" y="40" width="120" height="40" as="geometry" />
        </mxCell>
        <mxCell id="CGCkJXNFXPT9NMbplaxq-2" value="&amp;lt;Данные&amp;gt;" style="rounded=0;whiteSpace=wrap;html=1;labelBackgroundColor=none;fillColor=#EEEEEE;strokeColor=#FFFFFF;fontColor=#1A1A1A;" parent="WIyWlLk6GJQsqaUBKTNV-1" vertex="1">
          <mxGeometry x="160" y="200" width="120" height="40" as="geometry" />
        </mxCell>
        <mxCell id="CGCkJXNFXPT9NMbplaxq-3" value="" style="endArrow=none;html=1;rounded=0;fontColor=default;exitX=1;exitY=0.5;exitDx=0;exitDy=0;entryX=1;entryY=0.5;entryDx=0;entryDy=0;labelBackgroundColor=none;strokeColor=#FFFFFF;" parent="WIyWlLk6GJQsqaUBKTNV-1" source="CGCkJXNFXPT9NMbplaxq-2" target="CGCkJXNFXPT9NMbplaxq-0" edge="1">
          <mxGeometry width="50" height="50" relative="1" as="geometry">
            <mxPoint x="390" y="220" as="sourcePoint" />
            <mxPoint x="360" y="50" as="targetPoint" />
            <Array as="points">
              <mxPoint x="360" y="220" />
              <mxPoint x="360" y="60" />
              <mxPoint x="310" y="60" />
            </Array>
          </mxGeometry>
        </mxCell>
        <mxCell id="CGCkJXNFXPT9NMbplaxq-4" value="" style="endArrow=none;html=1;rounded=0;fontColor=default;exitX=0;exitY=0.5;exitDx=0;exitDy=0;entryX=0;entryY=0.5;entryDx=0;entryDy=0;labelBackgroundColor=none;strokeColor=#FFFFFF;" parent="WIyWlLk6GJQsqaUBKTNV-1" source="CGCkJXNFXPT9NMbplaxq-2" target="CGCkJXNFXPT9NMbplaxq-0" edge="1">
          <mxGeometry width="50" height="50" relative="1" as="geometry">
            <mxPoint x="390" y="220" as="sourcePoint" />
            <mxPoint x="440" y="170" as="targetPoint" />
            <Array as="points">
              <mxPoint x="80" y="220" />
              <mxPoint x="80" y="60" />
            </Array>
          </mxGeometry>
        </mxCell>
        <mxCell id="CGCkJXNFXPT9NMbplaxq-5" value="" style="endArrow=classic;html=1;rounded=0;fontColor=default;labelBackgroundColor=none;strokeColor=#FFFFFF;" parent="WIyWlLk6GJQsqaUBKTNV-1" edge="1">
          <mxGeometry width="50" height="50" relative="1" as="geometry">
            <mxPoint x="360" y="280" as="sourcePoint" />
            <mxPoint x="40" y="280" as="targetPoint" />
            <Array as="points">
              <mxPoint x="360" y="140" />
              <mxPoint x="40" y="140" />
            </Array>
          </mxGeometry>
        </mxCell>
        <mxCell id="CGCkJXNFXPT9NMbplaxq-1" value="&amp;lt;Функция&amp;gt;" style="rounded=0;whiteSpace=wrap;html=1;labelBackgroundColor=none;fillColor=#EEEEEE;strokeColor=#FFFFFF;fontColor=#1A1A1A;" parent="WIyWlLk6GJQsqaUBKTNV-1" vertex="1">
          <mxGeometry x="160" y="120" width="120" height="40" as="geometry" />
        </mxCell>
        <mxCell id="CGCkJXNFXPT9NMbplaxq-6" value="" style="endArrow=none;html=1;rounded=0;fontColor=default;labelBackgroundColor=none;strokeColor=#FFFFFF;" parent="WIyWlLk6GJQsqaUBKTNV-1" edge="1">
          <mxGeometry width="50" height="50" relative="1" as="geometry">
            <mxPoint x="-100" y="280" as="sourcePoint" />
            <mxPoint x="520" y="280" as="targetPoint" />
          </mxGeometry>
        </mxCell>
        <mxCell id="CGCkJXNFXPT9NMbplaxq-9" value="&lt;font color=&quot;#ffffff&quot;&gt;&amp;lt;программа&amp;gt;&lt;/font&gt;" style="text;html=1;strokeColor=none;fillColor=none;align=center;verticalAlign=middle;whiteSpace=wrap;rounded=0;labelBackgroundColor=none;fontColor=#1A1A1A;" parent="WIyWlLk6GJQsqaUBKTNV-1" vertex="1">
          <mxGeometry x="-120" y="240" width="90" height="30" as="geometry" />
        </mxCell>
        <mxCell id="J7y-XP0VDHYKK06Ch-qz-6" value="" style="endArrow=none;html=1;rounded=0;fontColor=default;labelBackgroundColor=none;strokeColor=#FFFFFF;" parent="WIyWlLk6GJQsqaUBKTNV-1" edge="1">
          <mxGeometry width="50" height="50" relative="1" as="geometry">
            <mxPoint x="-100" y="550" as="sourcePoint" />
            <mxPoint x="40" y="550" as="targetPoint" />
          </mxGeometry>
        </mxCell>
        <mxCell id="J7y-XP0VDHYKK06Ch-qz-7" value="&lt;font color=&quot;#ffffff&quot;&gt;&amp;lt;Данные&amp;gt;&lt;/font&gt;" style="text;html=1;strokeColor=none;fillColor=none;align=center;verticalAlign=middle;whiteSpace=wrap;rounded=0;labelBackgroundColor=none;fontColor=#1A1A1A;" parent="WIyWlLk6GJQsqaUBKTNV-1" vertex="1">
          <mxGeometry x="-120" y="510" width="90" height="30" as="geometry" />
        </mxCell>
        <mxCell id="J7y-XP0VDHYKK06Ch-qz-8" value="const" style="ellipse;whiteSpace=wrap;html=1;labelBackgroundColor=none;fillColor=#EEEEEE;strokeColor=#FFFFFF;fontColor=#1A1A1A;" parent="WIyWlLk6GJQsqaUBKTNV-1" vertex="1">
          <mxGeometry x="40" y="520" width="80" height="60" as="geometry" />
        </mxCell>
        <mxCell id="J7y-XP0VDHYKK06Ch-qz-12" style="edgeStyle=orthogonalEdgeStyle;rounded=0;orthogonalLoop=1;jettySize=auto;html=1;exitX=1;exitY=0.5;exitDx=0;exitDy=0;entryX=0;entryY=0.5;entryDx=0;entryDy=0;strokeColor=#FFFFFF;fontColor=#FFFFFF;endArrow=none;endFill=0;" parent="WIyWlLk6GJQsqaUBKTNV-1" source="J7y-XP0VDHYKK06Ch-qz-9" target="J7y-XP0VDHYKK06Ch-qz-11" edge="1">
          <mxGeometry relative="1" as="geometry" />
        </mxCell>
        <mxCell id="J7y-XP0VDHYKK06Ch-qz-9" value="&amp;lt;Тип&amp;gt;" style="rounded=0;whiteSpace=wrap;html=1;labelBackgroundColor=none;fillColor=#EEEEEE;strokeColor=#FFFFFF;fontColor=#1A1A1A;" parent="WIyWlLk6GJQsqaUBKTNV-1" vertex="1">
          <mxGeometry x="30" y="400" width="120" height="40" as="geometry" />
        </mxCell>
        <mxCell id="J7y-XP0VDHYKK06Ch-qz-10" value="" style="endArrow=none;html=1;rounded=0;strokeColor=#FFFFFF;fontColor=#FFFFFF;entryX=0;entryY=0.5;entryDx=0;entryDy=0;" parent="WIyWlLk6GJQsqaUBKTNV-1" target="J7y-XP0VDHYKK06Ch-qz-9" edge="1">
          <mxGeometry width="50" height="50" relative="1" as="geometry">
            <mxPoint y="550" as="sourcePoint" />
            <mxPoint x="-10" y="360" as="targetPoint" />
            <Array as="points">
              <mxPoint y="480" />
              <mxPoint y="420" />
            </Array>
          </mxGeometry>
        </mxCell>
        <mxCell id="J7y-XP0VDHYKK06Ch-qz-18" style="edgeStyle=orthogonalEdgeStyle;rounded=0;orthogonalLoop=1;jettySize=auto;html=1;exitX=1;exitY=0.5;exitDx=0;exitDy=0;entryX=0;entryY=0.5;entryDx=0;entryDy=0;strokeColor=#FFFFFF;fontColor=#FFFFFF;endArrow=none;endFill=0;" parent="WIyWlLk6GJQsqaUBKTNV-1" source="J7y-XP0VDHYKK06Ch-qz-11" target="J7y-XP0VDHYKK06Ch-qz-17" edge="1">
          <mxGeometry relative="1" as="geometry" />
        </mxCell>
        <mxCell id="J7y-XP0VDHYKK06Ch-qz-11" value="&amp;lt;Список&amp;gt;" style="rounded=0;whiteSpace=wrap;html=1;labelBackgroundColor=none;fillColor=#EEEEEE;strokeColor=#FFFFFF;fontColor=#1A1A1A;" parent="WIyWlLk6GJQsqaUBKTNV-1" vertex="1">
          <mxGeometry x="190" y="400" width="120" height="40" as="geometry" />
        </mxCell>
        <mxCell id="J7y-XP0VDHYKK06Ch-qz-13" value="&amp;lt;Тип&amp;gt;" style="rounded=0;whiteSpace=wrap;html=1;labelBackgroundColor=none;fillColor=#EEEEEE;strokeColor=#FFFFFF;fontColor=#1A1A1A;" parent="WIyWlLk6GJQsqaUBKTNV-1" vertex="1">
          <mxGeometry x="160" y="530" width="120" height="40" as="geometry" />
        </mxCell>
        <mxCell id="J7y-XP0VDHYKK06Ch-qz-20" style="edgeStyle=orthogonalEdgeStyle;rounded=0;orthogonalLoop=1;jettySize=auto;html=1;exitX=1;exitY=0.5;exitDx=0;exitDy=0;entryX=0;entryY=0.5;entryDx=0;entryDy=0;strokeColor=#FFFFFF;fontColor=#FFFFFF;endArrow=none;endFill=0;" parent="WIyWlLk6GJQsqaUBKTNV-1" source="J7y-XP0VDHYKK06Ch-qz-14" target="J7y-XP0VDHYKK06Ch-qz-19" edge="1">
          <mxGeometry relative="1" as="geometry" />
        </mxCell>
        <mxCell id="J7y-XP0VDHYKK06Ch-qz-14" value="&amp;lt;Список&amp;gt;" style="rounded=0;whiteSpace=wrap;html=1;labelBackgroundColor=none;fillColor=#EEEEEE;strokeColor=#FFFFFF;fontColor=#1A1A1A;" parent="WIyWlLk6GJQsqaUBKTNV-1" vertex="1">
          <mxGeometry x="320" y="530" width="120" height="40" as="geometry" />
        </mxCell>
        <mxCell id="J7y-XP0VDHYKK06Ch-qz-15" value="" style="endArrow=none;html=1;rounded=0;strokeColor=#FFFFFF;fontColor=#FFFFFF;exitX=1;exitY=0.5;exitDx=0;exitDy=0;entryX=0;entryY=0.5;entryDx=0;entryDy=0;" parent="WIyWlLk6GJQsqaUBKTNV-1" source="J7y-XP0VDHYKK06Ch-qz-13" target="J7y-XP0VDHYKK06Ch-qz-14" edge="1">
          <mxGeometry width="50" height="50" relative="1" as="geometry">
            <mxPoint x="280" y="530" as="sourcePoint" />
            <mxPoint x="330" y="480" as="targetPoint" />
          </mxGeometry>
        </mxCell>
        <mxCell id="J7y-XP0VDHYKK06Ch-qz-16" value="" style="endArrow=none;html=1;rounded=0;strokeColor=#FFFFFF;fontColor=#FFFFFF;exitX=1;exitY=0.5;exitDx=0;exitDy=0;entryX=0;entryY=0.5;entryDx=0;entryDy=0;" parent="WIyWlLk6GJQsqaUBKTNV-1" source="J7y-XP0VDHYKK06Ch-qz-8" target="J7y-XP0VDHYKK06Ch-qz-13" edge="1">
          <mxGeometry width="50" height="50" relative="1" as="geometry">
            <mxPoint x="280" y="530" as="sourcePoint" />
            <mxPoint x="330" y="480" as="targetPoint" />
          </mxGeometry>
        </mxCell>
        <mxCell id="J7y-XP0VDHYKK06Ch-qz-17" value=";" style="ellipse;whiteSpace=wrap;html=1;labelBackgroundColor=none;fillColor=#EEEEEE;strokeColor=#FFFFFF;fontColor=#1A1A1A;" parent="WIyWlLk6GJQsqaUBKTNV-1" vertex="1">
          <mxGeometry x="340" y="390" width="80" height="60" as="geometry" />
        </mxCell>
        <mxCell id="J7y-XP0VDHYKK06Ch-qz-19" value=";" style="ellipse;whiteSpace=wrap;html=1;labelBackgroundColor=none;fillColor=#EEEEEE;strokeColor=#FFFFFF;fontColor=#1A1A1A;" parent="WIyWlLk6GJQsqaUBKTNV-1" vertex="1">
          <mxGeometry x="470" y="520" width="80" height="60" as="geometry" />
        </mxCell>
        <mxCell id="J7y-XP0VDHYKK06Ch-qz-21" value="" style="endArrow=none;html=1;rounded=0;strokeColor=#FFFFFF;fontColor=#FFFFFF;entryX=1;entryY=0.5;entryDx=0;entryDy=0;" parent="WIyWlLk6GJQsqaUBKTNV-1" target="J7y-XP0VDHYKK06Ch-qz-19" edge="1">
          <mxGeometry width="50" height="50" relative="1" as="geometry">
            <mxPoint x="740" y="550" as="sourcePoint" />
            <mxPoint x="330" y="480" as="targetPoint" />
          </mxGeometry>
        </mxCell>
        <mxCell id="J7y-XP0VDHYKK06Ch-qz-22" value="" style="endArrow=none;html=1;rounded=0;strokeColor=#FFFFFF;fontColor=#FFFFFF;entryX=1;entryY=0.5;entryDx=0;entryDy=0;" parent="WIyWlLk6GJQsqaUBKTNV-1" target="J7y-XP0VDHYKK06Ch-qz-17" edge="1">
          <mxGeometry width="50" height="50" relative="1" as="geometry">
            <mxPoint x="600" y="420" as="sourcePoint" />
            <mxPoint x="330" y="480" as="targetPoint" />
            <Array as="points">
              <mxPoint x="600" y="550" />
              <mxPoint x="600" y="420" />
            </Array>
          </mxGeometry>
        </mxCell>
        <mxCell id="J7y-XP0VDHYKK06Ch-qz-26" value="int" style="ellipse;whiteSpace=wrap;html=1;labelBackgroundColor=none;fillColor=#EEEEEE;strokeColor=#FFFFFF;fontColor=#1A1A1A;" parent="WIyWlLk6GJQsqaUBKTNV-1" vertex="1">
          <mxGeometry x="45" y="650" width="70" height="60" as="geometry" />
        </mxCell>
        <mxCell id="J7y-XP0VDHYKK06Ch-qz-27" value="double" style="ellipse;whiteSpace=wrap;html=1;labelBackgroundColor=none;fillColor=#EEEEEE;strokeColor=#FFFFFF;fontColor=#1A1A1A;" parent="WIyWlLk6GJQsqaUBKTNV-1" vertex="1">
          <mxGeometry x="45" y="730" width="70" height="60" as="geometry" />
        </mxCell>
        <mxCell id="J7y-XP0VDHYKK06Ch-qz-28" value="short" style="ellipse;whiteSpace=wrap;html=1;labelBackgroundColor=none;fillColor=#EEEEEE;strokeColor=#FFFFFF;fontColor=#1A1A1A;" parent="WIyWlLk6GJQsqaUBKTNV-1" vertex="1">
          <mxGeometry x="45" y="810" width="70" height="60" as="geometry" />
        </mxCell>
        <mxCell id="J7y-XP0VDHYKK06Ch-qz-29" value="int" style="ellipse;whiteSpace=wrap;html=1;labelBackgroundColor=none;fillColor=#EEEEEE;strokeColor=#FFFFFF;fontColor=#1A1A1A;" parent="WIyWlLk6GJQsqaUBKTNV-1" vertex="1">
          <mxGeometry x="160" y="810" width="70" height="60" as="geometry" />
        </mxCell>
        <mxCell id="J7y-XP0VDHYKK06Ch-qz-31" value="" style="endArrow=none;html=1;rounded=0;strokeColor=#FFFFFF;fontColor=#FFFFFF;" parent="WIyWlLk6GJQsqaUBKTNV-1" edge="1">
          <mxGeometry width="50" height="50" relative="1" as="geometry">
            <mxPoint x="80" y="920" as="sourcePoint" />
            <mxPoint x="40" y="680" as="targetPoint" />
            <Array as="points">
              <mxPoint x="80" y="920" />
              <mxPoint y="920" />
              <mxPoint y="680" />
            </Array>
          </mxGeometry>
        </mxCell>
        <mxCell id="J7y-XP0VDHYKK06Ch-qz-32" value="" style="endArrow=none;html=1;rounded=0;strokeColor=#FFFFFF;fontColor=#FFFFFF;" parent="WIyWlLk6GJQsqaUBKTNV-1" edge="1">
          <mxGeometry width="50" height="50" relative="1" as="geometry">
            <mxPoint y="840" as="sourcePoint" />
            <mxPoint x="40" y="840" as="targetPoint" />
          </mxGeometry>
        </mxCell>
        <mxCell id="J7y-XP0VDHYKK06Ch-qz-34" value="" style="endArrow=none;html=1;rounded=0;strokeColor=#FFFFFF;fontColor=#FFFFFF;" parent="WIyWlLk6GJQsqaUBKTNV-1" edge="1">
          <mxGeometry width="50" height="50" relative="1" as="geometry">
            <mxPoint y="760" as="sourcePoint" />
            <mxPoint x="40" y="760" as="targetPoint" />
          </mxGeometry>
        </mxCell>
        <mxCell id="J7y-XP0VDHYKK06Ch-qz-35" value="&amp;lt;идентификартор&amp;gt;" style="rounded=0;whiteSpace=wrap;html=1;strokeColor=#FFFFFF;fontColor=#1A1A1A;fillColor=#EEEEEE;" parent="WIyWlLk6GJQsqaUBKTNV-1" vertex="1">
          <mxGeometry x="80" y="900" width="130" height="40" as="geometry" />
        </mxCell>
        <mxCell id="J7y-XP0VDHYKK06Ch-qz-36" value="" style="endArrow=none;html=1;rounded=0;strokeColor=#FFFFFF;fontColor=#FFFFFF;" parent="WIyWlLk6GJQsqaUBKTNV-1" edge="1">
          <mxGeometry width="50" height="50" relative="1" as="geometry">
            <mxPoint y="840" as="sourcePoint" />
            <mxPoint x="-120" y="840" as="targetPoint" />
          </mxGeometry>
        </mxCell>
        <mxCell id="J7y-XP0VDHYKK06Ch-qz-37" value="" style="endArrow=none;html=1;rounded=0;strokeColor=#FFFFFF;fontColor=#FFFFFF;exitX=1;exitY=0.5;exitDx=0;exitDy=0;entryX=0;entryY=0.5;entryDx=0;entryDy=0;" parent="WIyWlLk6GJQsqaUBKTNV-1" source="J7y-XP0VDHYKK06Ch-qz-28" target="J7y-XP0VDHYKK06Ch-qz-29" edge="1">
          <mxGeometry width="50" height="50" relative="1" as="geometry">
            <mxPoint x="280" y="830" as="sourcePoint" />
            <mxPoint x="330" y="780" as="targetPoint" />
          </mxGeometry>
        </mxCell>
        <mxCell id="J7y-XP0VDHYKK06Ch-qz-38" value="" style="endArrow=none;html=1;rounded=0;strokeColor=#FFFFFF;fontColor=#FFFFFF;exitX=1;exitY=0.5;exitDx=0;exitDy=0;" parent="WIyWlLk6GJQsqaUBKTNV-1" source="J7y-XP0VDHYKK06Ch-qz-35" edge="1">
          <mxGeometry width="50" height="50" relative="1" as="geometry">
            <mxPoint x="280" y="830" as="sourcePoint" />
            <mxPoint x="280" y="840" as="targetPoint" />
            <Array as="points">
              <mxPoint x="280" y="920" />
            </Array>
          </mxGeometry>
        </mxCell>
        <mxCell id="J7y-XP0VDHYKK06Ch-qz-39" value="" style="endArrow=none;html=1;rounded=0;strokeColor=#FFFFFF;fontColor=#FFFFFF;exitX=1;exitY=0.5;exitDx=0;exitDy=0;" parent="WIyWlLk6GJQsqaUBKTNV-1" source="J7y-XP0VDHYKK06Ch-qz-29" edge="1">
          <mxGeometry width="50" height="50" relative="1" as="geometry">
            <mxPoint x="280" y="830" as="sourcePoint" />
            <mxPoint x="360" y="840" as="targetPoint" />
          </mxGeometry>
        </mxCell>
        <mxCell id="J7y-XP0VDHYKK06Ch-qz-40" value="" style="endArrow=none;html=1;rounded=0;strokeColor=#FFFFFF;fontColor=#FFFFFF;exitX=1;exitY=0.5;exitDx=0;exitDy=0;" parent="WIyWlLk6GJQsqaUBKTNV-1" source="J7y-XP0VDHYKK06Ch-qz-44" edge="1">
          <mxGeometry width="50" height="50" relative="1" as="geometry">
            <mxPoint x="280" y="830" as="sourcePoint" />
            <mxPoint x="280" y="760" as="targetPoint" />
          </mxGeometry>
        </mxCell>
        <mxCell id="J7y-XP0VDHYKK06Ch-qz-41" value="" style="endArrow=none;html=1;rounded=0;strokeColor=#FFFFFF;fontColor=#FFFFFF;exitX=1;exitY=0.5;exitDx=0;exitDy=0;" parent="WIyWlLk6GJQsqaUBKTNV-1" source="J7y-XP0VDHYKK06Ch-qz-26" edge="1">
          <mxGeometry width="50" height="50" relative="1" as="geometry">
            <mxPoint x="280" y="830" as="sourcePoint" />
            <mxPoint x="280" y="680" as="targetPoint" />
          </mxGeometry>
        </mxCell>
        <mxCell id="J7y-XP0VDHYKK06Ch-qz-42" value="" style="endArrow=none;html=1;rounded=0;strokeColor=#FFFFFF;fontColor=#FFFFFF;" parent="WIyWlLk6GJQsqaUBKTNV-1" edge="1">
          <mxGeometry width="50" height="50" relative="1" as="geometry">
            <mxPoint x="280" y="840" as="sourcePoint" />
            <mxPoint x="280" y="680" as="targetPoint" />
          </mxGeometry>
        </mxCell>
        <mxCell id="J7y-XP0VDHYKK06Ch-qz-43" value="&lt;font color=&quot;#ffffff&quot;&gt;&amp;lt;тип&amp;gt;&lt;/font&gt;" style="text;html=1;strokeColor=none;fillColor=none;align=center;verticalAlign=middle;whiteSpace=wrap;rounded=0;labelBackgroundColor=none;fontColor=#1A1A1A;" parent="WIyWlLk6GJQsqaUBKTNV-1" vertex="1">
          <mxGeometry x="-130" y="800" width="90" height="30" as="geometry" />
        </mxCell>
        <mxCell id="J7y-XP0VDHYKK06Ch-qz-45" value="" style="endArrow=none;html=1;rounded=0;strokeColor=#FFFFFF;fontColor=#FFFFFF;exitX=1;exitY=0.5;exitDx=0;exitDy=0;" parent="WIyWlLk6GJQsqaUBKTNV-1" source="J7y-XP0VDHYKK06Ch-qz-27" target="J7y-XP0VDHYKK06Ch-qz-44" edge="1">
          <mxGeometry width="50" height="50" relative="1" as="geometry">
            <mxPoint x="115" y="760" as="sourcePoint" />
            <mxPoint x="280" y="760" as="targetPoint" />
          </mxGeometry>
        </mxCell>
        <mxCell id="J7y-XP0VDHYKK06Ch-qz-44" value="float" style="ellipse;whiteSpace=wrap;html=1;labelBackgroundColor=none;fillColor=#EEEEEE;strokeColor=#FFFFFF;fontColor=#1A1A1A;" parent="WIyWlLk6GJQsqaUBKTNV-1" vertex="1">
          <mxGeometry x="160" y="730" width="70" height="60" as="geometry" />
        </mxCell>
        <mxCell id="J7y-XP0VDHYKK06Ch-qz-52" value="" style="endArrow=none;html=1;rounded=0;strokeColor=#FFFFFF;fontColor=#FFFFFF;" parent="WIyWlLk6GJQsqaUBKTNV-1" edge="1">
          <mxGeometry width="50" height="50" relative="1" as="geometry">
            <mxPoint x="-120" y="1080" as="sourcePoint" />
            <mxPoint x="760" y="1080" as="targetPoint" />
          </mxGeometry>
        </mxCell>
        <mxCell id="J7y-XP0VDHYKK06Ch-qz-46" value="class" style="ellipse;whiteSpace=wrap;html=1;labelBackgroundColor=none;fillColor=#EEEEEE;strokeColor=#FFFFFF;fontColor=#1A1A1A;" parent="WIyWlLk6GJQsqaUBKTNV-1" vertex="1">
          <mxGeometry x="10" y="1050" width="70" height="60" as="geometry" />
        </mxCell>
        <mxCell id="J7y-XP0VDHYKK06Ch-qz-47" value="{" style="ellipse;whiteSpace=wrap;html=1;labelBackgroundColor=none;fillColor=#EEEEEE;strokeColor=#FFFFFF;fontColor=#1A1A1A;" parent="WIyWlLk6GJQsqaUBKTNV-1" vertex="1">
          <mxGeometry x="250" y="1050" width="70" height="60" as="geometry" />
        </mxCell>
        <mxCell id="J7y-XP0VDHYKK06Ch-qz-48" value="&amp;lt;идентификартор&amp;gt;" style="rounded=0;whiteSpace=wrap;html=1;strokeColor=#FFFFFF;fontColor=#1A1A1A;fillColor=#EEEEEE;" parent="WIyWlLk6GJQsqaUBKTNV-1" vertex="1">
          <mxGeometry x="100" y="1060" width="130" height="40" as="geometry" />
        </mxCell>
        <mxCell id="J7y-XP0VDHYKK06Ch-qz-49" value="}" style="ellipse;whiteSpace=wrap;html=1;labelBackgroundColor=none;fillColor=#EEEEEE;strokeColor=#FFFFFF;fontColor=#1A1A1A;" parent="WIyWlLk6GJQsqaUBKTNV-1" vertex="1">
          <mxGeometry x="520" y="1050" width="70" height="60" as="geometry" />
        </mxCell>
        <mxCell id="J7y-XP0VDHYKK06Ch-qz-50" value="&amp;lt;тело класса&amp;gt;" style="rounded=0;whiteSpace=wrap;html=1;strokeColor=#FFFFFF;fontColor=#1A1A1A;fillColor=#EEEEEE;" parent="WIyWlLk6GJQsqaUBKTNV-1" vertex="1">
          <mxGeometry x="360" y="1060" width="130" height="40" as="geometry" />
        </mxCell>
        <mxCell id="J7y-XP0VDHYKK06Ch-qz-51" value=";" style="ellipse;whiteSpace=wrap;html=1;labelBackgroundColor=none;fillColor=#EEEEEE;strokeColor=#FFFFFF;fontColor=#1A1A1A;" parent="WIyWlLk6GJQsqaUBKTNV-1" vertex="1">
          <mxGeometry x="640" y="1050" width="70" height="60" as="geometry" />
        </mxCell>
        <mxCell id="J7y-XP0VDHYKK06Ch-qz-53" value="&lt;font color=&quot;#ffffff&quot;&gt;&amp;lt;Класс&amp;gt;&lt;/font&gt;" style="text;html=1;strokeColor=none;fillColor=none;align=center;verticalAlign=middle;whiteSpace=wrap;rounded=0;labelBackgroundColor=none;fontColor=#1A1A1A;" parent="WIyWlLk6GJQsqaUBKTNV-1" vertex="1">
          <mxGeometry x="-130" y="1040" width="90" height="30" as="geometry" />
        </mxCell>
        <mxCell id="J7y-XP0VDHYKK06Ch-qz-54" value="" style="endArrow=none;html=1;rounded=0;strokeColor=#FFFFFF;fontColor=#FFFFFF;" parent="WIyWlLk6GJQsqaUBKTNV-1" edge="1">
          <mxGeometry width="50" height="50" relative="1" as="geometry">
            <mxPoint x="-200" y="1400" as="sourcePoint" />
            <mxPoint x="80" y="1400" as="targetPoint" />
          </mxGeometry>
        </mxCell>
        <mxCell id="J7y-XP0VDHYKK06Ch-qz-55" value="&amp;lt;идентификартор&amp;gt;" style="rounded=0;whiteSpace=wrap;html=1;strokeColor=#FFFFFF;fontColor=#1A1A1A;fillColor=#EEEEEE;" parent="WIyWlLk6GJQsqaUBKTNV-1" vertex="1">
          <mxGeometry x="80" y="1380" width="130" height="40" as="geometry" />
        </mxCell>
        <mxCell id="J7y-XP0VDHYKK06Ch-qz-56" value="=" style="ellipse;whiteSpace=wrap;html=1;labelBackgroundColor=none;fillColor=#EEEEEE;strokeColor=#FFFFFF;fontColor=#1A1A1A;" parent="WIyWlLk6GJQsqaUBKTNV-1" vertex="1">
          <mxGeometry x="280" y="1370" width="70" height="60" as="geometry" />
        </mxCell>
        <mxCell id="J7y-XP0VDHYKK06Ch-qz-57" value="&amp;lt;выражение&amp;gt;" style="rounded=0;whiteSpace=wrap;html=1;strokeColor=#FFFFFF;fontColor=#1A1A1A;fillColor=#EEEEEE;" parent="WIyWlLk6GJQsqaUBKTNV-1" vertex="1">
          <mxGeometry x="400" y="1380" width="130" height="40" as="geometry" />
        </mxCell>
        <mxCell id="J7y-XP0VDHYKK06Ch-qz-58" value="&amp;lt;идентификартор&amp;gt;" style="rounded=0;whiteSpace=wrap;html=1;strokeColor=#FFFFFF;fontColor=#1A1A1A;fillColor=#EEEEEE;" parent="WIyWlLk6GJQsqaUBKTNV-1" vertex="1">
          <mxGeometry x="240" y="1280" width="130" height="40" as="geometry" />
        </mxCell>
        <mxCell id="J7y-XP0VDHYKK06Ch-qz-59" value="" style="endArrow=none;html=1;rounded=0;strokeColor=#FFFFFF;fontColor=#FFFFFF;entryX=0;entryY=0.5;entryDx=0;entryDy=0;" parent="WIyWlLk6GJQsqaUBKTNV-1" target="J7y-XP0VDHYKK06Ch-qz-58" edge="1">
          <mxGeometry width="50" height="50" relative="1" as="geometry">
            <mxPoint y="1400" as="sourcePoint" />
            <mxPoint x="330" y="1140" as="targetPoint" />
            <Array as="points">
              <mxPoint y="1300" />
            </Array>
          </mxGeometry>
        </mxCell>
        <mxCell id="J7y-XP0VDHYKK06Ch-qz-60" value="" style="endArrow=none;html=1;rounded=0;strokeColor=#FFFFFF;fontColor=#FFFFFF;" parent="WIyWlLk6GJQsqaUBKTNV-1" edge="1">
          <mxGeometry width="50" height="50" relative="1" as="geometry">
            <mxPoint x="530" y="1400" as="sourcePoint" />
            <mxPoint x="800" y="1400" as="targetPoint" />
          </mxGeometry>
        </mxCell>
        <mxCell id="J7y-XP0VDHYKK06Ch-qz-61" value="" style="endArrow=none;html=1;rounded=0;strokeColor=#FFFFFF;fontColor=#FFFFFF;exitX=1;exitY=0.5;exitDx=0;exitDy=0;entryX=0;entryY=0.5;entryDx=0;entryDy=0;" parent="WIyWlLk6GJQsqaUBKTNV-1" source="J7y-XP0VDHYKK06Ch-qz-55" target="J7y-XP0VDHYKK06Ch-qz-56" edge="1">
          <mxGeometry width="50" height="50" relative="1" as="geometry">
            <mxPoint x="280" y="1190" as="sourcePoint" />
            <mxPoint x="330" y="1140" as="targetPoint" />
          </mxGeometry>
        </mxCell>
        <mxCell id="J7y-XP0VDHYKK06Ch-qz-62" value="" style="endArrow=none;html=1;rounded=0;strokeColor=#FFFFFF;fontColor=#FFFFFF;exitX=0;exitY=0.5;exitDx=0;exitDy=0;entryX=1;entryY=0.5;entryDx=0;entryDy=0;" parent="WIyWlLk6GJQsqaUBKTNV-1" source="J7y-XP0VDHYKK06Ch-qz-57" target="J7y-XP0VDHYKK06Ch-qz-56" edge="1">
          <mxGeometry width="50" height="50" relative="1" as="geometry">
            <mxPoint x="220" y="1410" as="sourcePoint" />
            <mxPoint x="290" y="1410" as="targetPoint" />
          </mxGeometry>
        </mxCell>
        <mxCell id="J7y-XP0VDHYKK06Ch-qz-63" value="" style="endArrow=none;html=1;rounded=0;strokeColor=#FFFFFF;fontColor=#FFFFFF;exitX=1;exitY=0.5;exitDx=0;exitDy=0;" parent="WIyWlLk6GJQsqaUBKTNV-1" source="J7y-XP0VDHYKK06Ch-qz-58" edge="1">
          <mxGeometry width="50" height="50" relative="1" as="geometry">
            <mxPoint x="280" y="1190" as="sourcePoint" />
            <mxPoint x="640" y="1400" as="targetPoint" />
            <Array as="points">
              <mxPoint x="640" y="1300" />
            </Array>
          </mxGeometry>
        </mxCell>
        <mxCell id="J7y-XP0VDHYKK06Ch-qz-64" value="" style="endArrow=classic;html=1;rounded=0;strokeColor=#FFFFFF;fontColor=#FFFFFF;" parent="WIyWlLk6GJQsqaUBKTNV-1" edge="1">
          <mxGeometry width="50" height="50" relative="1" as="geometry">
            <mxPoint x="240" y="1200" as="sourcePoint" />
            <mxPoint x="-80" y="1400" as="targetPoint" />
            <Array as="points">
              <mxPoint x="-80" y="1200" />
            </Array>
          </mxGeometry>
        </mxCell>
        <mxCell id="J7y-XP0VDHYKK06Ch-qz-65" value="," style="ellipse;whiteSpace=wrap;html=1;labelBackgroundColor=none;fillColor=#EEEEEE;strokeColor=#FFFFFF;fontColor=#1A1A1A;" parent="WIyWlLk6GJQsqaUBKTNV-1" vertex="1">
          <mxGeometry x="240" y="1169" width="70" height="60" as="geometry" />
        </mxCell>
        <mxCell id="J7y-XP0VDHYKK06Ch-qz-66" value="" style="endArrow=none;html=1;rounded=0;strokeColor=#FFFFFF;fontColor=#FFFFFF;exitX=1;exitY=0.5;exitDx=0;exitDy=0;" parent="WIyWlLk6GJQsqaUBKTNV-1" source="J7y-XP0VDHYKK06Ch-qz-65" edge="1">
          <mxGeometry width="50" height="50" relative="1" as="geometry">
            <mxPoint x="280" y="1190" as="sourcePoint" />
            <mxPoint x="720" y="1400" as="targetPoint" />
            <Array as="points">
              <mxPoint x="720" y="1200" />
            </Array>
          </mxGeometry>
        </mxCell>
        <mxCell id="J7y-XP0VDHYKK06Ch-qz-68" value="&lt;font color=&quot;#ffffff&quot;&gt;&amp;lt;список&amp;gt;&lt;/font&gt;" style="text;html=1;strokeColor=none;fillColor=none;align=center;verticalAlign=middle;whiteSpace=wrap;rounded=0;labelBackgroundColor=none;fontColor=#1A1A1A;" parent="WIyWlLk6GJQsqaUBKTNV-1" vertex="1">
          <mxGeometry x="-190" y="1360" width="90" height="30" as="geometry" />
        </mxCell>
        <mxCell id="J7y-XP0VDHYKK06Ch-qz-69" value="&lt;font color=&quot;#ffffff&quot;&gt;&amp;lt;переменная&amp;gt;&lt;/font&gt;" style="text;html=1;strokeColor=none;fillColor=none;align=center;verticalAlign=middle;whiteSpace=wrap;rounded=0;labelBackgroundColor=none;fontColor=#1A1A1A;" parent="WIyWlLk6GJQsqaUBKTNV-1" vertex="1">
          <mxGeometry x="-10" y="1270" width="90" height="30" as="geometry" />
        </mxCell>
        <mxCell id="J7y-XP0VDHYKK06Ch-qz-70" value="" style="endArrow=none;html=1;rounded=0;strokeColor=#FFFFFF;fontColor=#FFFFFF;" parent="WIyWlLk6GJQsqaUBKTNV-1" edge="1">
          <mxGeometry width="50" height="50" relative="1" as="geometry">
            <mxPoint x="-200" y="1720" as="sourcePoint" />
            <mxPoint x="-80" y="1720" as="targetPoint" />
          </mxGeometry>
        </mxCell>
        <mxCell id="J7y-XP0VDHYKK06Ch-qz-71" value="" style="endArrow=none;html=1;rounded=0;strokeColor=#FFFFFF;fontColor=#FFFFFF;" parent="WIyWlLk6GJQsqaUBKTNV-1" edge="1">
          <mxGeometry width="50" height="50" relative="1" as="geometry">
            <mxPoint x="-80" y="1720" as="sourcePoint" />
            <mxPoint x="-80" y="1640" as="targetPoint" />
          </mxGeometry>
        </mxCell>
        <mxCell id="J7y-XP0VDHYKK06Ch-qz-72" value="" style="endArrow=none;html=1;rounded=0;strokeColor=#FFFFFF;fontColor=#FFFFFF;" parent="WIyWlLk6GJQsqaUBKTNV-1" edge="1">
          <mxGeometry width="50" height="50" relative="1" as="geometry">
            <mxPoint x="-80" y="1720" as="sourcePoint" />
            <mxPoint y="1720" as="targetPoint" />
          </mxGeometry>
        </mxCell>
        <mxCell id="J7y-XP0VDHYKK06Ch-qz-73" value="int" style="ellipse;whiteSpace=wrap;html=1;labelBackgroundColor=none;fillColor=#EEEEEE;strokeColor=#FFFFFF;fontColor=#1A1A1A;" parent="WIyWlLk6GJQsqaUBKTNV-1" vertex="1">
          <mxGeometry y="1690" width="70" height="60" as="geometry" />
        </mxCell>
        <mxCell id="J7y-XP0VDHYKK06Ch-qz-74" value="main" style="ellipse;whiteSpace=wrap;html=1;labelBackgroundColor=none;fillColor=#EEEEEE;strokeColor=#FFFFFF;fontColor=#1A1A1A;" parent="WIyWlLk6GJQsqaUBKTNV-1" vertex="1">
          <mxGeometry x="120" y="1690" width="70" height="60" as="geometry" />
        </mxCell>
        <mxCell id="J7y-XP0VDHYKK06Ch-qz-75" value="{" style="ellipse;whiteSpace=wrap;html=1;labelBackgroundColor=none;fillColor=#EEEEEE;strokeColor=#FFFFFF;fontColor=#1A1A1A;" parent="WIyWlLk6GJQsqaUBKTNV-1" vertex="1">
          <mxGeometry x="240" y="1690" width="70" height="60" as="geometry" />
        </mxCell>
        <mxCell id="J7y-XP0VDHYKK06Ch-qz-76" value="}" style="ellipse;whiteSpace=wrap;html=1;labelBackgroundColor=none;fillColor=#EEEEEE;strokeColor=#FFFFFF;fontColor=#1A1A1A;" parent="WIyWlLk6GJQsqaUBKTNV-1" vertex="1">
          <mxGeometry x="360" y="1690" width="70" height="60" as="geometry" />
        </mxCell>
        <mxCell id="J7y-XP0VDHYKK06Ch-qz-77" value="void" style="ellipse;whiteSpace=wrap;html=1;labelBackgroundColor=none;fillColor=#EEEEEE;strokeColor=#FFFFFF;fontColor=#1A1A1A;" parent="WIyWlLk6GJQsqaUBKTNV-1" vertex="1">
          <mxGeometry y="1610" width="70" height="60" as="geometry" />
        </mxCell>
        <mxCell id="J7y-XP0VDHYKK06Ch-qz-78" value="&amp;lt;идентификартор&amp;gt;" style="rounded=0;whiteSpace=wrap;html=1;strokeColor=#FFFFFF;fontColor=#1A1A1A;fillColor=#EEEEEE;" parent="WIyWlLk6GJQsqaUBKTNV-1" vertex="1">
          <mxGeometry x="100" y="1620" width="130" height="40" as="geometry" />
        </mxCell>
        <mxCell id="J7y-XP0VDHYKK06Ch-qz-79" value="{" style="ellipse;whiteSpace=wrap;html=1;labelBackgroundColor=none;fillColor=#EEEEEE;strokeColor=#FFFFFF;fontColor=#1A1A1A;" parent="WIyWlLk6GJQsqaUBKTNV-1" vertex="1">
          <mxGeometry x="260" y="1610" width="70" height="60" as="geometry" />
        </mxCell>
        <mxCell id="J7y-XP0VDHYKK06Ch-qz-80" value="}" style="ellipse;whiteSpace=wrap;html=1;labelBackgroundColor=none;fillColor=#EEEEEE;strokeColor=#FFFFFF;fontColor=#1A1A1A;" parent="WIyWlLk6GJQsqaUBKTNV-1" vertex="1">
          <mxGeometry x="360" y="1610" width="70" height="60" as="geometry" />
        </mxCell>
        <mxCell id="J7y-XP0VDHYKK06Ch-qz-81" value="&amp;lt;составной оператор&amp;gt;" style="rounded=0;whiteSpace=wrap;html=1;strokeColor=#FFFFFF;fontColor=#1A1A1A;fillColor=#EEEEEE;" parent="WIyWlLk6GJQsqaUBKTNV-1" vertex="1">
          <mxGeometry x="460" y="1620" width="130" height="40" as="geometry" />
        </mxCell>
        <mxCell id="J7y-XP0VDHYKK06Ch-qz-82" value="&amp;lt;составной оператор&amp;gt;" style="rounded=0;whiteSpace=wrap;html=1;strokeColor=#FFFFFF;fontColor=#1A1A1A;fillColor=#EEEEEE;" parent="WIyWlLk6GJQsqaUBKTNV-1" vertex="1">
          <mxGeometry x="460" y="1700" width="130" height="40" as="geometry" />
        </mxCell>
        <mxCell id="J7y-XP0VDHYKK06Ch-qz-83" value="" style="endArrow=none;html=1;rounded=0;strokeColor=#FFFFFF;fontColor=#FFFFFF;entryX=0;entryY=0.5;entryDx=0;entryDy=0;" parent="WIyWlLk6GJQsqaUBKTNV-1" target="J7y-XP0VDHYKK06Ch-qz-77" edge="1">
          <mxGeometry width="50" height="50" relative="1" as="geometry">
            <mxPoint x="-80" y="1640" as="sourcePoint" />
            <mxPoint x="330" y="1540" as="targetPoint" />
          </mxGeometry>
        </mxCell>
        <mxCell id="J7y-XP0VDHYKK06Ch-qz-84" value="" style="endArrow=none;html=1;rounded=0;strokeColor=#FFFFFF;fontColor=#FFFFFF;exitX=1;exitY=0.5;exitDx=0;exitDy=0;entryX=0;entryY=0.5;entryDx=0;entryDy=0;" parent="WIyWlLk6GJQsqaUBKTNV-1" source="J7y-XP0VDHYKK06Ch-qz-77" target="J7y-XP0VDHYKK06Ch-qz-78" edge="1">
          <mxGeometry width="50" height="50" relative="1" as="geometry">
            <mxPoint x="280" y="1590" as="sourcePoint" />
            <mxPoint x="330" y="1540" as="targetPoint" />
          </mxGeometry>
        </mxCell>
        <mxCell id="J7y-XP0VDHYKK06Ch-qz-85" value="" style="endArrow=none;html=1;rounded=0;strokeColor=#FFFFFF;fontColor=#FFFFFF;exitX=1;exitY=0.5;exitDx=0;exitDy=0;entryX=0;entryY=0.5;entryDx=0;entryDy=0;" parent="WIyWlLk6GJQsqaUBKTNV-1" source="J7y-XP0VDHYKK06Ch-qz-78" target="J7y-XP0VDHYKK06Ch-qz-79" edge="1">
          <mxGeometry width="50" height="50" relative="1" as="geometry">
            <mxPoint x="280" y="1590" as="sourcePoint" />
            <mxPoint x="330" y="1540" as="targetPoint" />
          </mxGeometry>
        </mxCell>
        <mxCell id="J7y-XP0VDHYKK06Ch-qz-86" value="" style="endArrow=none;html=1;rounded=0;strokeColor=#FFFFFF;fontColor=#FFFFFF;exitX=1;exitY=0.5;exitDx=0;exitDy=0;entryX=0;entryY=0.5;entryDx=0;entryDy=0;" parent="WIyWlLk6GJQsqaUBKTNV-1" source="J7y-XP0VDHYKK06Ch-qz-78" target="J7y-XP0VDHYKK06Ch-qz-79" edge="1">
          <mxGeometry width="50" height="50" relative="1" as="geometry">
            <mxPoint x="280" y="1590" as="sourcePoint" />
            <mxPoint x="330" y="1540" as="targetPoint" />
          </mxGeometry>
        </mxCell>
        <mxCell id="J7y-XP0VDHYKK06Ch-qz-87" value="" style="endArrow=none;html=1;rounded=0;strokeColor=#FFFFFF;fontColor=#FFFFFF;exitX=1;exitY=0.5;exitDx=0;exitDy=0;entryX=0;entryY=0.5;entryDx=0;entryDy=0;" parent="WIyWlLk6GJQsqaUBKTNV-1" source="J7y-XP0VDHYKK06Ch-qz-79" target="J7y-XP0VDHYKK06Ch-qz-80" edge="1">
          <mxGeometry width="50" height="50" relative="1" as="geometry">
            <mxPoint x="280" y="1590" as="sourcePoint" />
            <mxPoint x="330" y="1540" as="targetPoint" />
          </mxGeometry>
        </mxCell>
        <mxCell id="J7y-XP0VDHYKK06Ch-qz-88" value="" style="endArrow=none;html=1;rounded=0;strokeColor=#FFFFFF;fontColor=#FFFFFF;exitX=1;exitY=0.5;exitDx=0;exitDy=0;entryX=0;entryY=0.5;entryDx=0;entryDy=0;" parent="WIyWlLk6GJQsqaUBKTNV-1" source="J7y-XP0VDHYKK06Ch-qz-80" target="J7y-XP0VDHYKK06Ch-qz-81" edge="1">
          <mxGeometry width="50" height="50" relative="1" as="geometry">
            <mxPoint x="280" y="1590" as="sourcePoint" />
            <mxPoint x="330" y="1540" as="targetPoint" />
          </mxGeometry>
        </mxCell>
        <mxCell id="J7y-XP0VDHYKK06Ch-qz-89" value="" style="endArrow=none;html=1;rounded=0;strokeColor=#FFFFFF;fontColor=#FFFFFF;exitX=1;exitY=0.5;exitDx=0;exitDy=0;entryX=0;entryY=0.5;entryDx=0;entryDy=0;" parent="WIyWlLk6GJQsqaUBKTNV-1" source="J7y-XP0VDHYKK06Ch-qz-73" target="J7y-XP0VDHYKK06Ch-qz-74" edge="1">
          <mxGeometry width="50" height="50" relative="1" as="geometry">
            <mxPoint x="280" y="1590" as="sourcePoint" />
            <mxPoint x="330" y="1540" as="targetPoint" />
          </mxGeometry>
        </mxCell>
        <mxCell id="J7y-XP0VDHYKK06Ch-qz-90" value="" style="endArrow=none;html=1;rounded=0;strokeColor=#FFFFFF;fontColor=#FFFFFF;exitX=1;exitY=0.5;exitDx=0;exitDy=0;entryX=0;entryY=0.5;entryDx=0;entryDy=0;" parent="WIyWlLk6GJQsqaUBKTNV-1" source="J7y-XP0VDHYKK06Ch-qz-74" target="J7y-XP0VDHYKK06Ch-qz-75" edge="1">
          <mxGeometry width="50" height="50" relative="1" as="geometry">
            <mxPoint x="280" y="1590" as="sourcePoint" />
            <mxPoint x="230" y="1720" as="targetPoint" />
          </mxGeometry>
        </mxCell>
        <mxCell id="J7y-XP0VDHYKK06Ch-qz-91" value="" style="endArrow=none;html=1;rounded=0;strokeColor=#FFFFFF;fontColor=#FFFFFF;exitX=1;exitY=0.5;exitDx=0;exitDy=0;entryX=0;entryY=0.5;entryDx=0;entryDy=0;" parent="WIyWlLk6GJQsqaUBKTNV-1" source="J7y-XP0VDHYKK06Ch-qz-75" target="J7y-XP0VDHYKK06Ch-qz-76" edge="1">
          <mxGeometry width="50" height="50" relative="1" as="geometry">
            <mxPoint x="280" y="1590" as="sourcePoint" />
            <mxPoint x="330" y="1540" as="targetPoint" />
          </mxGeometry>
        </mxCell>
        <mxCell id="J7y-XP0VDHYKK06Ch-qz-92" value="" style="endArrow=none;html=1;rounded=0;strokeColor=#FFFFFF;fontColor=#FFFFFF;exitX=1;exitY=0.5;exitDx=0;exitDy=0;entryX=0;entryY=0.5;entryDx=0;entryDy=0;" parent="WIyWlLk6GJQsqaUBKTNV-1" source="J7y-XP0VDHYKK06Ch-qz-76" target="J7y-XP0VDHYKK06Ch-qz-82" edge="1">
          <mxGeometry width="50" height="50" relative="1" as="geometry">
            <mxPoint x="280" y="1590" as="sourcePoint" />
            <mxPoint x="330" y="1540" as="targetPoint" />
          </mxGeometry>
        </mxCell>
        <mxCell id="J7y-XP0VDHYKK06Ch-qz-93" value="" style="endArrow=none;html=1;rounded=0;strokeColor=#FFFFFF;fontColor=#FFFFFF;exitX=1;exitY=0.5;exitDx=0;exitDy=0;" parent="WIyWlLk6GJQsqaUBKTNV-1" source="J7y-XP0VDHYKK06Ch-qz-82" edge="1">
          <mxGeometry width="50" height="50" relative="1" as="geometry">
            <mxPoint x="280" y="1590" as="sourcePoint" />
            <mxPoint x="800" y="1720" as="targetPoint" />
          </mxGeometry>
        </mxCell>
        <mxCell id="J7y-XP0VDHYKK06Ch-qz-94" value="" style="endArrow=none;html=1;rounded=0;strokeColor=#FFFFFF;fontColor=#FFFFFF;exitX=1;exitY=0.5;exitDx=0;exitDy=0;" parent="WIyWlLk6GJQsqaUBKTNV-1" source="J7y-XP0VDHYKK06Ch-qz-81" edge="1">
          <mxGeometry width="50" height="50" relative="1" as="geometry">
            <mxPoint x="280" y="1590" as="sourcePoint" />
            <mxPoint x="640" y="1720" as="targetPoint" />
            <Array as="points">
              <mxPoint x="640" y="1640" />
            </Array>
          </mxGeometry>
        </mxCell>
        <mxCell id="J7y-XP0VDHYKK06Ch-qz-95" value="&lt;font color=&quot;#ffffff&quot;&gt;&amp;lt;функция&amp;gt;&lt;/font&gt;" style="text;html=1;strokeColor=none;fillColor=none;align=center;verticalAlign=middle;whiteSpace=wrap;rounded=0;labelBackgroundColor=none;fontColor=#1A1A1A;" parent="WIyWlLk6GJQsqaUBKTNV-1" vertex="1">
          <mxGeometry x="-200" y="1680" width="90" height="30" as="geometry" />
        </mxCell>
        <mxCell id="J7y-XP0VDHYKK06Ch-qz-96" value="&lt;font color=&quot;#ffffff&quot;&gt;&amp;lt;оператор&amp;gt;&lt;/font&gt;" style="text;html=1;strokeColor=none;fillColor=none;align=center;verticalAlign=middle;whiteSpace=wrap;rounded=0;labelBackgroundColor=none;fontColor=#1A1A1A;" parent="WIyWlLk6GJQsqaUBKTNV-1" vertex="1">
          <mxGeometry x="-200" y="1800" width="90" height="30" as="geometry" />
        </mxCell>
        <mxCell id="R1HSc_Sz26Aq6x33Aut7-0" value="" style="endArrow=none;html=1;rounded=0;strokeColor=#FFFFFF;" parent="WIyWlLk6GJQsqaUBKTNV-1" source="R1HSc_Sz26Aq6x33Aut7-2" edge="1">
          <mxGeometry width="50" height="50" relative="1" as="geometry">
            <mxPoint x="-200" y="1840" as="sourcePoint" />
            <mxPoint x="600" y="1840" as="targetPoint" />
          </mxGeometry>
        </mxCell>
        <mxCell id="R1HSc_Sz26Aq6x33Aut7-3" value="" style="endArrow=none;html=1;rounded=0;strokeColor=#FFFFFF;" parent="WIyWlLk6GJQsqaUBKTNV-1" target="R1HSc_Sz26Aq6x33Aut7-2" edge="1">
          <mxGeometry width="50" height="50" relative="1" as="geometry">
            <mxPoint x="-200" y="1840" as="sourcePoint" />
            <mxPoint x="600" y="1840" as="targetPoint" />
          </mxGeometry>
        </mxCell>
        <mxCell id="R1HSc_Sz26Aq6x33Aut7-2" value="&amp;lt;составной оператор&amp;gt;" style="rounded=0;whiteSpace=wrap;html=1;strokeColor=#FFFFFF;fontColor=#1A1A1A;fillColor=#EEEEEE;" parent="WIyWlLk6GJQsqaUBKTNV-1" vertex="1">
          <mxGeometry x="100" y="1820" width="130" height="40" as="geometry" />
        </mxCell>
        <mxCell id="R1HSc_Sz26Aq6x33Aut7-5" value="" style="endArrow=none;html=1;rounded=0;strokeColor=#FFFFFF;" parent="WIyWlLk6GJQsqaUBKTNV-1" edge="1">
          <mxGeometry width="50" height="50" relative="1" as="geometry">
            <mxPoint x="320" y="1840" as="sourcePoint" />
            <mxPoint x="320" y="2240" as="targetPoint" />
          </mxGeometry>
        </mxCell>
        <mxCell id="R1HSc_Sz26Aq6x33Aut7-6" value="" style="endArrow=none;html=1;rounded=0;strokeColor=#FFFFFF;" parent="WIyWlLk6GJQsqaUBKTNV-1" edge="1">
          <mxGeometry width="50" height="50" relative="1" as="geometry">
            <mxPoint x="40" y="1840" as="sourcePoint" />
            <mxPoint x="40" y="2240" as="targetPoint" />
          </mxGeometry>
        </mxCell>
        <mxCell id="R1HSc_Sz26Aq6x33Aut7-7" value="" style="endArrow=none;html=1;rounded=0;strokeColor=#FFFFFF;" parent="WIyWlLk6GJQsqaUBKTNV-1" edge="1">
          <mxGeometry width="50" height="50" relative="1" as="geometry">
            <mxPoint x="120" y="1920" as="sourcePoint" />
            <mxPoint x="40" y="1920" as="targetPoint" />
          </mxGeometry>
        </mxCell>
        <mxCell id="R1HSc_Sz26Aq6x33Aut7-8" value=";" style="ellipse;whiteSpace=wrap;html=1;labelBackgroundColor=none;fillColor=#EEEEEE;strokeColor=#FFFFFF;fontColor=#1A1A1A;" parent="WIyWlLk6GJQsqaUBKTNV-1" vertex="1">
          <mxGeometry x="115" y="1890" width="80" height="60" as="geometry" />
        </mxCell>
        <mxCell id="R1HSc_Sz26Aq6x33Aut7-9" value="" style="endArrow=none;html=1;rounded=0;strokeColor=#FFFFFF;" parent="WIyWlLk6GJQsqaUBKTNV-1" edge="1">
          <mxGeometry width="50" height="50" relative="1" as="geometry">
            <mxPoint x="320" y="1920" as="sourcePoint" />
            <mxPoint x="195" y="1919.5" as="targetPoint" />
          </mxGeometry>
        </mxCell>
        <mxCell id="R1HSc_Sz26Aq6x33Aut7-10" value="" style="endArrow=none;html=1;rounded=0;strokeColor=#FFFFFF;" parent="WIyWlLk6GJQsqaUBKTNV-1" edge="1">
          <mxGeometry width="50" height="50" relative="1" as="geometry">
            <mxPoint x="120" y="2000" as="sourcePoint" />
            <mxPoint x="40" y="2000" as="targetPoint" />
          </mxGeometry>
        </mxCell>
        <mxCell id="R1HSc_Sz26Aq6x33Aut7-12" value="" style="endArrow=none;html=1;rounded=0;strokeColor=#FFFFFF;entryX=1;entryY=0.5;entryDx=0;entryDy=0;" parent="WIyWlLk6GJQsqaUBKTNV-1" edge="1">
          <mxGeometry width="50" height="50" relative="1" as="geometry">
            <mxPoint x="320" y="2000" as="sourcePoint" />
            <mxPoint x="245" y="2000" as="targetPoint" />
          </mxGeometry>
        </mxCell>
        <mxCell id="R1HSc_Sz26Aq6x33Aut7-13" value="" style="endArrow=none;html=1;rounded=0;strokeColor=#FFFFFF;exitX=0;exitY=0.5;exitDx=0;exitDy=0;" parent="WIyWlLk6GJQsqaUBKTNV-1" source="R1HSc_Sz26Aq6x33Aut7-16" edge="1">
          <mxGeometry width="50" height="50" relative="1" as="geometry">
            <mxPoint x="80" y="2080" as="sourcePoint" />
            <mxPoint x="40" y="2080" as="targetPoint" />
          </mxGeometry>
        </mxCell>
        <mxCell id="R1HSc_Sz26Aq6x33Aut7-15" value="&amp;lt;присваивание&amp;gt;" style="rounded=0;whiteSpace=wrap;html=1;strokeColor=#FFFFFF;fontColor=#1A1A1A;fillColor=#EEEEEE;" parent="WIyWlLk6GJQsqaUBKTNV-1" vertex="1">
          <mxGeometry x="115" y="1980" width="130" height="40" as="geometry" />
        </mxCell>
        <mxCell id="R1HSc_Sz26Aq6x33Aut7-17" value="" style="endArrow=none;html=1;rounded=0;strokeColor=#FFFFFF;entryX=1;entryY=0.5;entryDx=0;entryDy=0;" parent="WIyWlLk6GJQsqaUBKTNV-1" edge="1">
          <mxGeometry width="50" height="50" relative="1" as="geometry">
            <mxPoint x="320" y="2080" as="sourcePoint" />
            <mxPoint x="160" y="2079.5" as="targetPoint" />
          </mxGeometry>
        </mxCell>
        <mxCell id="R1HSc_Sz26Aq6x33Aut7-16" value="do{}while" style="ellipse;whiteSpace=wrap;html=1;labelBackgroundColor=none;fillColor=#EEEEEE;strokeColor=#FFFFFF;fontColor=#1A1A1A;" parent="WIyWlLk6GJQsqaUBKTNV-1" vertex="1">
          <mxGeometry x="140" y="2050" width="80" height="60" as="geometry" />
        </mxCell>
        <mxCell id="R1HSc_Sz26Aq6x33Aut7-18" value="" style="endArrow=none;html=1;rounded=0;strokeColor=#FFFFFF;" parent="WIyWlLk6GJQsqaUBKTNV-1" edge="1">
          <mxGeometry width="50" height="50" relative="1" as="geometry">
            <mxPoint x="120" y="2160" as="sourcePoint" />
            <mxPoint x="40" y="2160" as="targetPoint" />
          </mxGeometry>
        </mxCell>
        <mxCell id="R1HSc_Sz26Aq6x33Aut7-19" value="&amp;lt;вызов функции&amp;gt;" style="rounded=0;whiteSpace=wrap;html=1;strokeColor=#FFFFFF;fontColor=#1A1A1A;fillColor=#EEEEEE;" parent="WIyWlLk6GJQsqaUBKTNV-1" vertex="1">
          <mxGeometry x="115" y="2140" width="130" height="40" as="geometry" />
        </mxCell>
        <mxCell id="R1HSc_Sz26Aq6x33Aut7-20" value="" style="endArrow=none;html=1;rounded=0;strokeColor=#FFFFFF;entryX=1;entryY=0.5;entryDx=0;entryDy=0;" parent="WIyWlLk6GJQsqaUBKTNV-1" target="R1HSc_Sz26Aq6x33Aut7-19" edge="1">
          <mxGeometry width="50" height="50" relative="1" as="geometry">
            <mxPoint x="320" y="2160" as="sourcePoint" />
            <mxPoint x="255" y="2010" as="targetPoint" />
          </mxGeometry>
        </mxCell>
        <mxCell id="R1HSc_Sz26Aq6x33Aut7-21" value="return" style="ellipse;whiteSpace=wrap;html=1;labelBackgroundColor=none;fillColor=#EEEEEE;strokeColor=#FFFFFF;fontColor=#1A1A1A;" parent="WIyWlLk6GJQsqaUBKTNV-1" vertex="1">
          <mxGeometry x="120" y="2210" width="80" height="60" as="geometry" />
        </mxCell>
        <mxCell id="R1HSc_Sz26Aq6x33Aut7-22" value="" style="endArrow=none;html=1;rounded=0;strokeColor=#FFFFFF;exitX=0;exitY=0.5;exitDx=0;exitDy=0;" parent="WIyWlLk6GJQsqaUBKTNV-1" source="R1HSc_Sz26Aq6x33Aut7-21" edge="1">
          <mxGeometry width="50" height="50" relative="1" as="geometry">
            <mxPoint x="130" y="2170" as="sourcePoint" />
            <mxPoint x="40" y="2240" as="targetPoint" />
          </mxGeometry>
        </mxCell>
        <mxCell id="R1HSc_Sz26Aq6x33Aut7-23" value="" style="endArrow=none;html=1;rounded=0;strokeColor=#FFFFFF;entryX=1;entryY=0.5;entryDx=0;entryDy=0;" parent="WIyWlLk6GJQsqaUBKTNV-1" target="R1HSc_Sz26Aq6x33Aut7-21" edge="1">
          <mxGeometry width="50" height="50" relative="1" as="geometry">
            <mxPoint x="320" y="2240" as="sourcePoint" />
            <mxPoint x="255" y="2170" as="targetPoint" />
          </mxGeometry>
        </mxCell>
        <mxCell id="R1HSc_Sz26Aq6x33Aut7-24" value="" style="endArrow=none;html=1;rounded=0;strokeColor=#FFFFFF;" parent="WIyWlLk6GJQsqaUBKTNV-1" source="R1HSc_Sz26Aq6x33Aut7-38" edge="1">
          <mxGeometry width="50" height="50" relative="1" as="geometry">
            <mxPoint x="-40" y="2440" as="sourcePoint" />
            <mxPoint x="600" y="2440" as="targetPoint" />
            <Array as="points" />
          </mxGeometry>
        </mxCell>
        <mxCell id="R1HSc_Sz26Aq6x33Aut7-25" value="&amp;lt;составной оператор&amp;gt;&lt;font color=&quot;#ffffff&quot;&gt;&amp;lt;составной оператор&amp;gt;&lt;/font&gt;" style="text;html=1;strokeColor=none;fillColor=none;align=center;verticalAlign=middle;whiteSpace=wrap;rounded=0;labelBackgroundColor=none;fontColor=#1A1A1A;" parent="WIyWlLk6GJQsqaUBKTNV-1" vertex="1">
          <mxGeometry x="-260" y="2410" width="150" height="30" as="geometry" />
        </mxCell>
        <mxCell id="R1HSc_Sz26Aq6x33Aut7-27" value="" style="endArrow=none;html=1;rounded=0;strokeColor=#FFFFFF;" parent="WIyWlLk6GJQsqaUBKTNV-1" target="R1HSc_Sz26Aq6x33Aut7-26" edge="1">
          <mxGeometry width="50" height="50" relative="1" as="geometry">
            <mxPoint x="-240" y="2440" as="sourcePoint" />
            <mxPoint x="600" y="2360" as="targetPoint" />
          </mxGeometry>
        </mxCell>
        <mxCell id="R1HSc_Sz26Aq6x33Aut7-26" value="{" style="ellipse;whiteSpace=wrap;html=1;labelBackgroundColor=none;fillColor=#EEEEEE;strokeColor=#FFFFFF;fontColor=#1A1A1A;" parent="WIyWlLk6GJQsqaUBKTNV-1" vertex="1">
          <mxGeometry x="-110" y="2410" width="80" height="60" as="geometry" />
        </mxCell>
        <mxCell id="R1HSc_Sz26Aq6x33Aut7-28" value="&lt;font color=&quot;#ffffff&quot;&gt;&amp;lt;оператор и описание&amp;gt;&lt;/font&gt;" style="text;html=1;strokeColor=none;fillColor=none;align=center;verticalAlign=middle;whiteSpace=wrap;rounded=0;labelBackgroundColor=none;fontColor=#1A1A1A;" parent="WIyWlLk6GJQsqaUBKTNV-1" vertex="1">
          <mxGeometry x="-30" y="2410" width="90" height="30" as="geometry" />
        </mxCell>
        <mxCell id="R1HSc_Sz26Aq6x33Aut7-30" value="" style="endArrow=classic;html=1;rounded=0;strokeColor=#FFFFFF;endFill=1;" parent="WIyWlLk6GJQsqaUBKTNV-1" edge="1">
          <mxGeometry width="50" height="50" relative="1" as="geometry">
            <mxPoint x="80" y="2320" as="sourcePoint" />
            <mxPoint x="80" y="2440" as="targetPoint" />
          </mxGeometry>
        </mxCell>
        <mxCell id="R1HSc_Sz26Aq6x33Aut7-31" value="" style="endArrow=none;html=1;rounded=0;strokeColor=#FFFFFF;" parent="WIyWlLk6GJQsqaUBKTNV-1" edge="1">
          <mxGeometry width="50" height="50" relative="1" as="geometry">
            <mxPoint x="400" y="2320" as="sourcePoint" />
            <mxPoint x="400" y="2440" as="targetPoint" />
          </mxGeometry>
        </mxCell>
        <mxCell id="R1HSc_Sz26Aq6x33Aut7-32" value="&amp;lt;данные&amp;gt;" style="rounded=0;whiteSpace=wrap;html=1;strokeColor=#FFFFFF;fontColor=#1A1A1A;fillColor=#EEEEEE;" parent="WIyWlLk6GJQsqaUBKTNV-1" vertex="1">
          <mxGeometry x="120" y="2298" width="130" height="40" as="geometry" />
        </mxCell>
        <mxCell id="R1HSc_Sz26Aq6x33Aut7-33" value="&amp;lt;оператор&amp;gt;" style="rounded=0;whiteSpace=wrap;html=1;strokeColor=#FFFFFF;fontColor=#1A1A1A;fillColor=#EEEEEE;" parent="WIyWlLk6GJQsqaUBKTNV-1" vertex="1">
          <mxGeometry x="120" y="2360" width="130" height="40" as="geometry" />
        </mxCell>
        <mxCell id="R1HSc_Sz26Aq6x33Aut7-34" value="" style="endArrow=none;html=1;rounded=0;strokeColor=#FFFFFF;entryX=1;entryY=0.5;entryDx=0;entryDy=0;" parent="WIyWlLk6GJQsqaUBKTNV-1" target="R1HSc_Sz26Aq6x33Aut7-32" edge="1">
          <mxGeometry width="50" height="50" relative="1" as="geometry">
            <mxPoint x="400" y="2318" as="sourcePoint" />
            <mxPoint x="210" y="2250" as="targetPoint" />
          </mxGeometry>
        </mxCell>
        <mxCell id="R1HSc_Sz26Aq6x33Aut7-35" value="" style="endArrow=none;html=1;rounded=0;strokeColor=#FFFFFF;exitX=0;exitY=0.5;exitDx=0;exitDy=0;" parent="WIyWlLk6GJQsqaUBKTNV-1" source="R1HSc_Sz26Aq6x33Aut7-32" edge="1">
          <mxGeometry width="50" height="50" relative="1" as="geometry">
            <mxPoint x="120" y="2317.5" as="sourcePoint" />
            <mxPoint x="80" y="2320" as="targetPoint" />
          </mxGeometry>
        </mxCell>
        <mxCell id="R1HSc_Sz26Aq6x33Aut7-36" value="" style="endArrow=none;html=1;rounded=0;strokeColor=#FFFFFF;exitX=0;exitY=0.5;exitDx=0;exitDy=0;" parent="WIyWlLk6GJQsqaUBKTNV-1" source="R1HSc_Sz26Aq6x33Aut7-33" edge="1">
          <mxGeometry width="50" height="50" relative="1" as="geometry">
            <mxPoint x="130" y="2328" as="sourcePoint" />
            <mxPoint x="80" y="2380" as="targetPoint" />
          </mxGeometry>
        </mxCell>
        <mxCell id="R1HSc_Sz26Aq6x33Aut7-37" value="" style="endArrow=none;html=1;rounded=0;strokeColor=#FFFFFF;entryX=1;entryY=0.5;entryDx=0;entryDy=0;" parent="WIyWlLk6GJQsqaUBKTNV-1" target="R1HSc_Sz26Aq6x33Aut7-33" edge="1">
          <mxGeometry width="50" height="50" relative="1" as="geometry">
            <mxPoint x="400" y="2380" as="sourcePoint" />
            <mxPoint x="260" y="2328" as="targetPoint" />
          </mxGeometry>
        </mxCell>
        <mxCell id="R1HSc_Sz26Aq6x33Aut7-39" value="" style="endArrow=none;html=1;rounded=0;strokeColor=#FFFFFF;" parent="WIyWlLk6GJQsqaUBKTNV-1" target="R1HSc_Sz26Aq6x33Aut7-38" edge="1">
          <mxGeometry width="50" height="50" relative="1" as="geometry">
            <mxPoint x="-40" y="2440" as="sourcePoint" />
            <mxPoint x="600" y="2440" as="targetPoint" />
            <Array as="points">
              <mxPoint x="140" y="2440" />
            </Array>
          </mxGeometry>
        </mxCell>
        <mxCell id="R1HSc_Sz26Aq6x33Aut7-38" value="}" style="ellipse;whiteSpace=wrap;html=1;labelBackgroundColor=none;fillColor=#EEEEEE;strokeColor=#FFFFFF;fontColor=#1A1A1A;" parent="WIyWlLk6GJQsqaUBKTNV-1" vertex="1">
          <mxGeometry x="430" y="2410" width="80" height="60" as="geometry" />
        </mxCell>
        <mxCell id="R1HSc_Sz26Aq6x33Aut7-40" value="" style="endArrow=none;html=1;rounded=0;strokeColor=#FFFFFF;" parent="WIyWlLk6GJQsqaUBKTNV-1" source="R1HSc_Sz26Aq6x33Aut7-48" edge="1">
          <mxGeometry width="50" height="50" relative="1" as="geometry">
            <mxPoint x="-250" y="2720" as="sourcePoint" />
            <mxPoint x="680.7999267578125" y="2720" as="targetPoint" />
          </mxGeometry>
        </mxCell>
        <mxCell id="R1HSc_Sz26Aq6x33Aut7-43" value="&lt;font color=&quot;#ffffff&quot;&gt;do {} while&lt;/font&gt;" style="text;html=1;strokeColor=none;fillColor=none;align=center;verticalAlign=middle;whiteSpace=wrap;rounded=0;labelBackgroundColor=none;fontColor=#1A1A1A;" parent="WIyWlLk6GJQsqaUBKTNV-1" vertex="1">
          <mxGeometry x="-360" y="2680" width="170" height="30" as="geometry" />
        </mxCell>
        <mxCell id="R1HSc_Sz26Aq6x33Aut7-46" value="" style="endArrow=none;html=1;rounded=0;strokeColor=#FFFFFF;" parent="WIyWlLk6GJQsqaUBKTNV-1" target="R1HSc_Sz26Aq6x33Aut7-45" edge="1">
          <mxGeometry width="50" height="50" relative="1" as="geometry">
            <mxPoint x="-250" y="2720" as="sourcePoint" />
            <mxPoint x="680.7999267578125" y="2720" as="targetPoint" />
          </mxGeometry>
        </mxCell>
        <mxCell id="R1HSc_Sz26Aq6x33Aut7-45" value="{" style="ellipse;whiteSpace=wrap;html=1;labelBackgroundColor=none;fillColor=#EEEEEE;strokeColor=#FFFFFF;fontColor=#1A1A1A;" parent="WIyWlLk6GJQsqaUBKTNV-1" vertex="1">
          <mxGeometry x="-80" y="2690" width="80" height="60" as="geometry" />
        </mxCell>
        <mxCell id="R1HSc_Sz26Aq6x33Aut7-47" value="" style="endArrow=none;html=1;rounded=0;strokeColor=#FFFFFF;" parent="WIyWlLk6GJQsqaUBKTNV-1" source="R1HSc_Sz26Aq6x33Aut7-45" target="R1HSc_Sz26Aq6x33Aut7-44" edge="1">
          <mxGeometry width="50" height="50" relative="1" as="geometry">
            <mxPoint x="-90" y="2720" as="sourcePoint" />
            <mxPoint x="680.7999267578125" y="2720" as="targetPoint" />
          </mxGeometry>
        </mxCell>
        <mxCell id="R1HSc_Sz26Aq6x33Aut7-44" value="&amp;lt;оператор&amp;gt;" style="rounded=0;whiteSpace=wrap;html=1;strokeColor=#FFFFFF;fontColor=#1A1A1A;fillColor=#EEEEEE;" parent="WIyWlLk6GJQsqaUBKTNV-1" vertex="1">
          <mxGeometry x="20" y="2700" width="130" height="40" as="geometry" />
        </mxCell>
        <mxCell id="R1HSc_Sz26Aq6x33Aut7-49" value="" style="endArrow=none;html=1;rounded=0;strokeColor=#FFFFFF;" parent="WIyWlLk6GJQsqaUBKTNV-1" source="R1HSc_Sz26Aq6x33Aut7-44" target="R1HSc_Sz26Aq6x33Aut7-48" edge="1">
          <mxGeometry width="50" height="50" relative="1" as="geometry">
            <mxPoint x="150" y="2720" as="sourcePoint" />
            <mxPoint x="680.7999267578125" y="2720" as="targetPoint" />
          </mxGeometry>
        </mxCell>
        <mxCell id="R1HSc_Sz26Aq6x33Aut7-48" value="}" style="ellipse;whiteSpace=wrap;html=1;labelBackgroundColor=none;fillColor=#EEEEEE;strokeColor=#FFFFFF;fontColor=#1A1A1A;" parent="WIyWlLk6GJQsqaUBKTNV-1" vertex="1">
          <mxGeometry x="200" y="2690" width="80" height="60" as="geometry" />
        </mxCell>
        <mxCell id="R1HSc_Sz26Aq6x33Aut7-50" value="&amp;lt;выражение&amp;gt;" style="rounded=0;whiteSpace=wrap;html=1;strokeColor=#FFFFFF;fontColor=#1A1A1A;fillColor=#EEEEEE;" parent="WIyWlLk6GJQsqaUBKTNV-1" vertex="1">
          <mxGeometry x="360" y="2700" width="130" height="40" as="geometry" />
        </mxCell>
        <mxCell id="R1HSc_Sz26Aq6x33Aut7-55" value="" style="endArrow=none;html=1;rounded=0;strokeColor=#FFFFFF;" parent="WIyWlLk6GJQsqaUBKTNV-1" edge="1">
          <mxGeometry width="50" height="50" relative="1" as="geometry">
            <mxPoint x="-250" y="2960" as="sourcePoint" />
            <mxPoint x="-80" y="2960" as="targetPoint" />
          </mxGeometry>
        </mxCell>
        <mxCell id="R1HSc_Sz26Aq6x33Aut7-56" value="" style="endArrow=none;html=1;rounded=0;strokeColor=#FFFFFF;" parent="WIyWlLk6GJQsqaUBKTNV-1" edge="1">
          <mxGeometry width="50" height="50" relative="1" as="geometry">
            <mxPoint x="-80" y="2840" as="sourcePoint" />
            <mxPoint x="-80" y="2960" as="targetPoint" />
          </mxGeometry>
        </mxCell>
        <mxCell id="R1HSc_Sz26Aq6x33Aut7-57" value="" style="endArrow=none;html=1;rounded=0;strokeColor=#FFFFFF;" parent="WIyWlLk6GJQsqaUBKTNV-1" edge="1">
          <mxGeometry width="50" height="50" relative="1" as="geometry">
            <mxPoint x="100" y="2840" as="sourcePoint" />
            <mxPoint x="100" y="2960" as="targetPoint" />
          </mxGeometry>
        </mxCell>
        <mxCell id="R1HSc_Sz26Aq6x33Aut7-63" style="edgeStyle=orthogonalEdgeStyle;rounded=0;orthogonalLoop=1;jettySize=auto;html=1;" parent="WIyWlLk6GJQsqaUBKTNV-1" source="R1HSc_Sz26Aq6x33Aut7-58" edge="1">
          <mxGeometry relative="1" as="geometry">
            <mxPoint x="-80" y="2840" as="targetPoint" />
          </mxGeometry>
        </mxCell>
        <mxCell id="R1HSc_Sz26Aq6x33Aut7-58" value="&amp;lt;идентификартор&amp;gt;" style="rounded=0;whiteSpace=wrap;html=1;strokeColor=#FFFFFF;fontColor=#1A1A1A;fillColor=#EEEEEE;" parent="WIyWlLk6GJQsqaUBKTNV-1" vertex="1">
          <mxGeometry x="-60" y="2820" width="130" height="40" as="geometry" />
        </mxCell>
        <mxCell id="R1HSc_Sz26Aq6x33Aut7-59" value="&amp;lt;поле класса&amp;gt;" style="rounded=0;whiteSpace=wrap;html=1;strokeColor=#FFFFFF;fontColor=#1A1A1A;fillColor=#EEEEEE;" parent="WIyWlLk6GJQsqaUBKTNV-1" vertex="1">
          <mxGeometry x="-60" y="2940" width="130" height="40" as="geometry" />
        </mxCell>
        <mxCell id="R1HSc_Sz26Aq6x33Aut7-61" value="" style="endArrow=none;html=1;rounded=0;strokeColor=#FFFFFF;exitX=0;exitY=0.5;exitDx=0;exitDy=0;" parent="WIyWlLk6GJQsqaUBKTNV-1" source="R1HSc_Sz26Aq6x33Aut7-58" edge="1">
          <mxGeometry width="50" height="50" relative="1" as="geometry">
            <mxPoint x="-110" y="2820" as="sourcePoint" />
            <mxPoint x="-80" y="2840" as="targetPoint" />
          </mxGeometry>
        </mxCell>
        <mxCell id="R1HSc_Sz26Aq6x33Aut7-62" value="" style="endArrow=none;html=1;rounded=0;strokeColor=#FFFFFF;exitX=0;exitY=0.5;exitDx=0;exitDy=0;" parent="WIyWlLk6GJQsqaUBKTNV-1" source="R1HSc_Sz26Aq6x33Aut7-59" edge="1">
          <mxGeometry width="50" height="50" relative="1" as="geometry">
            <mxPoint x="-50" y="2850" as="sourcePoint" />
            <mxPoint x="-80" y="2960" as="targetPoint" />
            <Array as="points" />
          </mxGeometry>
        </mxCell>
        <mxCell id="R1HSc_Sz26Aq6x33Aut7-64" value="" style="endArrow=none;html=1;rounded=0;strokeColor=#FFFFFF;entryX=0;entryY=0.5;entryDx=0;entryDy=0;" parent="WIyWlLk6GJQsqaUBKTNV-1" target="R1HSc_Sz26Aq6x33Aut7-66" edge="1">
          <mxGeometry width="50" height="50" relative="1" as="geometry">
            <mxPoint x="70" y="2960" as="sourcePoint" />
            <mxPoint x="100" y="2960" as="targetPoint" />
            <Array as="points" />
          </mxGeometry>
        </mxCell>
        <mxCell id="R1HSc_Sz26Aq6x33Aut7-65" value="" style="endArrow=none;html=1;rounded=0;strokeColor=#FFFFFF;exitX=1;exitY=0.5;exitDx=0;exitDy=0;" parent="WIyWlLk6GJQsqaUBKTNV-1" source="R1HSc_Sz26Aq6x33Aut7-58" edge="1">
          <mxGeometry width="50" height="50" relative="1" as="geometry">
            <mxPoint x="80" y="2970" as="sourcePoint" />
            <mxPoint x="100" y="2840" as="targetPoint" />
            <Array as="points" />
          </mxGeometry>
        </mxCell>
        <mxCell id="R1HSc_Sz26Aq6x33Aut7-66" value="=" style="ellipse;whiteSpace=wrap;html=1;labelBackgroundColor=none;fillColor=#EEEEEE;strokeColor=#FFFFFF;fontColor=#1A1A1A;" parent="WIyWlLk6GJQsqaUBKTNV-1" vertex="1">
          <mxGeometry x="155" y="2930" width="80" height="60" as="geometry" />
        </mxCell>
        <mxCell id="R1HSc_Sz26Aq6x33Aut7-67" value="&amp;lt;выражение&amp;gt;" style="rounded=0;whiteSpace=wrap;html=1;strokeColor=#FFFFFF;fontColor=#1A1A1A;fillColor=#EEEEEE;" parent="WIyWlLk6GJQsqaUBKTNV-1" vertex="1">
          <mxGeometry x="315" y="2940" width="130" height="40" as="geometry" />
        </mxCell>
        <mxCell id="R1HSc_Sz26Aq6x33Aut7-68" value="" style="endArrow=none;html=1;rounded=0;strokeColor=#FFFFFF;entryX=1;entryY=0.5;entryDx=0;entryDy=0;exitX=0;exitY=0.5;exitDx=0;exitDy=0;" parent="WIyWlLk6GJQsqaUBKTNV-1" source="R1HSc_Sz26Aq6x33Aut7-67" target="R1HSc_Sz26Aq6x33Aut7-66" edge="1">
          <mxGeometry width="50" height="50" relative="1" as="geometry">
            <mxPoint x="80" y="2970" as="sourcePoint" />
            <mxPoint x="165" y="2970" as="targetPoint" />
            <Array as="points" />
          </mxGeometry>
        </mxCell>
        <mxCell id="R1HSc_Sz26Aq6x33Aut7-70" value="&amp;lt;составной оператор&amp;gt;&lt;font color=&quot;#ffffff&quot;&gt;&amp;lt;присваивание&amp;gt;&lt;/font&gt;" style="text;html=1;strokeColor=none;fillColor=none;align=center;verticalAlign=middle;whiteSpace=wrap;rounded=0;labelBackgroundColor=none;fontColor=#1A1A1A;" parent="WIyWlLk6GJQsqaUBKTNV-1" vertex="1">
          <mxGeometry x="-270" y="2923" width="150" height="30" as="geometry" />
        </mxCell>
        <mxCell id="R1HSc_Sz26Aq6x33Aut7-71" value="" style="endArrow=none;html=1;rounded=0;strokeColor=#FFFFFF;" parent="WIyWlLk6GJQsqaUBKTNV-1" edge="1">
          <mxGeometry width="50" height="50" relative="1" as="geometry">
            <mxPoint x="-240" y="3160" as="sourcePoint" />
            <mxPoint x="120" y="3160" as="targetPoint" />
          </mxGeometry>
        </mxCell>
        <mxCell id="R1HSc_Sz26Aq6x33Aut7-72" value="&amp;lt;идентификартор&amp;gt;" style="rounded=0;whiteSpace=wrap;html=1;strokeColor=#FFFFFF;fontColor=#1A1A1A;fillColor=#EEEEEE;" parent="WIyWlLk6GJQsqaUBKTNV-1" vertex="1">
          <mxGeometry x="120" y="3140" width="130" height="40" as="geometry" />
        </mxCell>
        <mxCell id="R1HSc_Sz26Aq6x33Aut7-73" value="" style="endArrow=none;html=1;rounded=0;strokeColor=#FFFFFF;" parent="WIyWlLk6GJQsqaUBKTNV-1" edge="1">
          <mxGeometry width="50" height="50" relative="1" as="geometry">
            <mxPoint x="250" y="3159.41" as="sourcePoint" />
            <mxPoint x="610" y="3159.41" as="targetPoint" />
          </mxGeometry>
        </mxCell>
        <mxCell id="R1HSc_Sz26Aq6x33Aut7-75" value="." style="ellipse;whiteSpace=wrap;html=1;labelBackgroundColor=none;fillColor=#EEEEEE;strokeColor=#FFFFFF;fontColor=#1A1A1A;" parent="WIyWlLk6GJQsqaUBKTNV-1" vertex="1">
          <mxGeometry x="140" y="3020" width="80" height="60" as="geometry" />
        </mxCell>
        <mxCell id="R1HSc_Sz26Aq6x33Aut7-77" value="&lt;font color=&quot;#ffffff&quot;&gt;&amp;lt;поле класса&amp;gt;&lt;/font&gt;" style="text;html=1;strokeColor=none;fillColor=none;align=center;verticalAlign=middle;whiteSpace=wrap;rounded=0;labelBackgroundColor=none;fontColor=#1A1A1A;" parent="WIyWlLk6GJQsqaUBKTNV-1" vertex="1">
          <mxGeometry x="-250" y="3120" width="90" height="30" as="geometry" />
        </mxCell>
        <mxCell id="R1HSc_Sz26Aq6x33Aut7-78" value="" style="endArrow=none;html=1;rounded=0;strokeColor=#FFFFFF;" parent="WIyWlLk6GJQsqaUBKTNV-1" edge="1">
          <mxGeometry width="50" height="50" relative="1" as="geometry">
            <mxPoint x="320" y="3160" as="sourcePoint" />
            <mxPoint x="320" y="3040" as="targetPoint" />
            <Array as="points" />
          </mxGeometry>
        </mxCell>
        <mxCell id="R1HSc_Sz26Aq6x33Aut7-79" value="" style="endArrow=none;html=1;rounded=0;strokeColor=#FFFFFF;exitX=1;exitY=0.5;exitDx=0;exitDy=0;" parent="WIyWlLk6GJQsqaUBKTNV-1" source="R1HSc_Sz26Aq6x33Aut7-75" edge="1">
          <mxGeometry width="50" height="50" relative="1" as="geometry">
            <mxPoint x="330" y="3170" as="sourcePoint" />
            <mxPoint x="320" y="3050" as="targetPoint" />
            <Array as="points" />
          </mxGeometry>
        </mxCell>
        <mxCell id="R1HSc_Sz26Aq6x33Aut7-80" value="" style="endArrow=none;html=1;rounded=0;strokeColor=#FFFFFF;exitX=0;exitY=0.5;exitDx=0;exitDy=0;" parent="WIyWlLk6GJQsqaUBKTNV-1" source="R1HSc_Sz26Aq6x33Aut7-75" edge="1">
          <mxGeometry width="50" height="50" relative="1" as="geometry">
            <mxPoint x="230" y="3060" as="sourcePoint" />
            <mxPoint y="3050" as="targetPoint" />
            <Array as="points" />
          </mxGeometry>
        </mxCell>
        <mxCell id="R1HSc_Sz26Aq6x33Aut7-81" value="" style="endArrow=none;html=1;rounded=0;strokeColor=#FFFFFF;endFill=0;startArrow=classic;startFill=1;" parent="WIyWlLk6GJQsqaUBKTNV-1" edge="1">
          <mxGeometry width="50" height="50" relative="1" as="geometry">
            <mxPoint y="3160" as="sourcePoint" />
            <mxPoint y="3050" as="targetPoint" />
            <Array as="points" />
          </mxGeometry>
        </mxCell>
        <mxCell id="R1HSc_Sz26Aq6x33Aut7-82" value="" style="endArrow=none;html=1;rounded=0;strokeColor=#FFFFFF;" parent="WIyWlLk6GJQsqaUBKTNV-1" edge="1">
          <mxGeometry width="50" height="50" relative="1" as="geometry">
            <mxPoint x="-245" y="3320" as="sourcePoint" />
            <mxPoint y="3320" as="targetPoint" />
          </mxGeometry>
        </mxCell>
        <mxCell id="R1HSc_Sz26Aq6x33Aut7-83" value="&amp;lt;выр.отношения&amp;gt;" style="rounded=0;whiteSpace=wrap;html=1;strokeColor=#FFFFFF;fontColor=#1A1A1A;fillColor=#EEEEEE;" parent="WIyWlLk6GJQsqaUBKTNV-1" vertex="1">
          <mxGeometry y="3300" width="130" height="40" as="geometry" />
        </mxCell>
        <mxCell id="R1HSc_Sz26Aq6x33Aut7-84" value="&lt;font color=&quot;#ffffff&quot;&gt;&amp;lt;выражение&amp;gt;&lt;/font&gt;" style="text;html=1;strokeColor=none;fillColor=none;align=center;verticalAlign=middle;whiteSpace=wrap;rounded=0;labelBackgroundColor=none;fontColor=#1A1A1A;" parent="WIyWlLk6GJQsqaUBKTNV-1" vertex="1">
          <mxGeometry x="-250" y="3290" width="90" height="30" as="geometry" />
        </mxCell>
        <mxCell id="R1HSc_Sz26Aq6x33Aut7-85" value="" style="endArrow=classic;html=1;rounded=0;strokeColor=#FFFFFF;startArrow=none;startFill=0;endFill=1;" parent="WIyWlLk6GJQsqaUBKTNV-1" edge="1">
          <mxGeometry width="50" height="50" relative="1" as="geometry">
            <mxPoint x="130" y="3318.57" as="sourcePoint" />
            <mxPoint x="760" y="3319" as="targetPoint" />
          </mxGeometry>
        </mxCell>
        <mxCell id="R1HSc_Sz26Aq6x33Aut7-86" value="" style="endArrow=none;html=1;rounded=0;strokeColor=#FFFFFF;startArrow=classic;startFill=1;" parent="WIyWlLk6GJQsqaUBKTNV-1" edge="1">
          <mxGeometry width="50" height="50" relative="1" as="geometry">
            <mxPoint x="200" y="3320" as="sourcePoint" />
            <mxPoint x="200" y="3240" as="targetPoint" />
          </mxGeometry>
        </mxCell>
        <mxCell id="R1HSc_Sz26Aq6x33Aut7-87" value="&amp;lt;выр.отношения&amp;gt;" style="rounded=0;whiteSpace=wrap;html=1;strokeColor=#FFFFFF;fontColor=#1A1A1A;fillColor=#EEEEEE;" parent="WIyWlLk6GJQsqaUBKTNV-1" vertex="1">
          <mxGeometry x="235" y="3220" width="130" height="40" as="geometry" />
        </mxCell>
        <mxCell id="R1HSc_Sz26Aq6x33Aut7-88" value="" style="endArrow=none;html=1;rounded=0;strokeColor=#FFFFFF;entryX=0;entryY=0.5;entryDx=0;entryDy=0;" parent="WIyWlLk6GJQsqaUBKTNV-1" target="R1HSc_Sz26Aq6x33Aut7-87" edge="1">
          <mxGeometry width="50" height="50" relative="1" as="geometry">
            <mxPoint x="200" y="3240" as="sourcePoint" />
            <mxPoint x="385" y="3328.57" as="targetPoint" />
          </mxGeometry>
        </mxCell>
        <mxCell id="R1HSc_Sz26Aq6x33Aut7-89" value="" style="endArrow=none;html=1;rounded=0;strokeColor=#FFFFFF;startArrow=classic;startFill=1;" parent="WIyWlLk6GJQsqaUBKTNV-1" edge="1">
          <mxGeometry width="50" height="50" relative="1" as="geometry">
            <mxPoint x="370" y="3240" as="sourcePoint" />
            <mxPoint x="440" y="3240" as="targetPoint" />
          </mxGeometry>
        </mxCell>
        <mxCell id="R1HSc_Sz26Aq6x33Aut7-90" value="" style="endArrow=none;html=1;rounded=0;strokeColor=#FFFFFF;" parent="WIyWlLk6GJQsqaUBKTNV-1" edge="1">
          <mxGeometry width="50" height="50" relative="1" as="geometry">
            <mxPoint x="440" y="3280" as="sourcePoint" />
            <mxPoint x="440" y="3200" as="targetPoint" />
          </mxGeometry>
        </mxCell>
        <mxCell id="R1HSc_Sz26Aq6x33Aut7-91" value="" style="endArrow=none;html=1;rounded=0;strokeColor=#FFFFFF;exitX=0;exitY=0.5;exitDx=0;exitDy=0;" parent="WIyWlLk6GJQsqaUBKTNV-1" edge="1" source="-5ZrnQzwCX1gNfyooeKi-0">
          <mxGeometry width="50" height="50" relative="1" as="geometry">
            <mxPoint x="480" y="3200" as="sourcePoint" />
            <mxPoint x="440" y="3200" as="targetPoint" />
          </mxGeometry>
        </mxCell>
        <mxCell id="R1HSc_Sz26Aq6x33Aut7-92" value="" style="endArrow=none;html=1;rounded=0;strokeColor=#FFFFFF;exitX=0;exitY=0.5;exitDx=0;exitDy=0;" parent="WIyWlLk6GJQsqaUBKTNV-1" edge="1" source="-5ZrnQzwCX1gNfyooeKi-1">
          <mxGeometry width="50" height="50" relative="1" as="geometry">
            <mxPoint x="480" y="3280" as="sourcePoint" />
            <mxPoint x="440" y="3280" as="targetPoint" />
            <Array as="points">
              <mxPoint x="470" y="3280" />
            </Array>
          </mxGeometry>
        </mxCell>
        <mxCell id="R1HSc_Sz26Aq6x33Aut7-95" value="" style="endArrow=none;html=1;rounded=0;strokeColor=#FFFFFF;startArrow=classic;startFill=1;exitX=1;exitY=0.5;exitDx=0;exitDy=0;" parent="WIyWlLk6GJQsqaUBKTNV-1" edge="1" source="-5ZrnQzwCX1gNfyooeKi-0">
          <mxGeometry width="50" height="50" relative="1" as="geometry">
            <mxPoint x="610" y="3199.29" as="sourcePoint" />
            <mxPoint x="680" y="3199.29" as="targetPoint" />
          </mxGeometry>
        </mxCell>
        <mxCell id="R1HSc_Sz26Aq6x33Aut7-96" value="" style="endArrow=none;html=1;rounded=0;strokeColor=#FFFFFF;startArrow=classic;startFill=1;exitX=1;exitY=0.5;exitDx=0;exitDy=0;" parent="WIyWlLk6GJQsqaUBKTNV-1" edge="1" source="-5ZrnQzwCX1gNfyooeKi-1">
          <mxGeometry width="50" height="50" relative="1" as="geometry">
            <mxPoint x="610" y="3279.29" as="sourcePoint" />
            <mxPoint x="680" y="3279.29" as="targetPoint" />
          </mxGeometry>
        </mxCell>
        <mxCell id="R1HSc_Sz26Aq6x33Aut7-97" value="" style="endArrow=none;html=1;rounded=0;strokeColor=#FFFFFF;" parent="WIyWlLk6GJQsqaUBKTNV-1" edge="1">
          <mxGeometry width="50" height="50" relative="1" as="geometry">
            <mxPoint x="680" y="3320" as="sourcePoint" />
            <mxPoint x="680" y="3200" as="targetPoint" />
          </mxGeometry>
        </mxCell>
        <mxCell id="R1HSc_Sz26Aq6x33Aut7-98" value="" style="endArrow=none;html=1;rounded=0;strokeColor=#FFFFFF;" parent="WIyWlLk6GJQsqaUBKTNV-1" edge="1">
          <mxGeometry width="50" height="50" relative="1" as="geometry">
            <mxPoint x="-175" y="3679.17" as="sourcePoint" />
            <mxPoint x="70" y="3679.17" as="targetPoint" />
          </mxGeometry>
        </mxCell>
        <mxCell id="R1HSc_Sz26Aq6x33Aut7-99" value="слагаемое" style="rounded=0;whiteSpace=wrap;html=1;strokeColor=#FFFFFF;fontColor=#1A1A1A;fillColor=#EEEEEE;" parent="WIyWlLk6GJQsqaUBKTNV-1" vertex="1">
          <mxGeometry x="70" y="3660" width="130" height="40" as="geometry" />
        </mxCell>
        <mxCell id="R1HSc_Sz26Aq6x33Aut7-100" value="" style="endArrow=classic;html=1;rounded=0;strokeColor=#FFFFFF;startArrow=none;startFill=0;endFill=1;" parent="WIyWlLk6GJQsqaUBKTNV-1" edge="1">
          <mxGeometry width="50" height="50" relative="1" as="geometry">
            <mxPoint x="190" y="3680" as="sourcePoint" />
            <mxPoint x="820" y="3680.43" as="targetPoint" />
          </mxGeometry>
        </mxCell>
        <mxCell id="R1HSc_Sz26Aq6x33Aut7-101" value="" style="endArrow=none;html=1;rounded=0;strokeColor=#FFFFFF;startArrow=classic;startFill=1;" parent="WIyWlLk6GJQsqaUBKTNV-1" edge="1">
          <mxGeometry width="50" height="50" relative="1" as="geometry">
            <mxPoint x="240" y="3680" as="sourcePoint" />
            <mxPoint x="237.5" y="3520" as="targetPoint" />
          </mxGeometry>
        </mxCell>
        <mxCell id="R1HSc_Sz26Aq6x33Aut7-102" value="слагаемое" style="rounded=0;whiteSpace=wrap;html=1;strokeColor=#FFFFFF;fontColor=#1A1A1A;fillColor=#EEEEEE;" parent="WIyWlLk6GJQsqaUBKTNV-1" vertex="1">
          <mxGeometry x="272.5" y="3500" width="130" height="40" as="geometry" />
        </mxCell>
        <mxCell id="R1HSc_Sz26Aq6x33Aut7-103" value="" style="endArrow=none;html=1;rounded=0;strokeColor=#FFFFFF;entryX=0;entryY=0.5;entryDx=0;entryDy=0;" parent="WIyWlLk6GJQsqaUBKTNV-1" target="R1HSc_Sz26Aq6x33Aut7-102" edge="1">
          <mxGeometry width="50" height="50" relative="1" as="geometry">
            <mxPoint x="237.5" y="3520" as="sourcePoint" />
            <mxPoint x="422.5" y="3608.57" as="targetPoint" />
          </mxGeometry>
        </mxCell>
        <mxCell id="R1HSc_Sz26Aq6x33Aut7-104" value="" style="endArrow=none;html=1;rounded=0;strokeColor=#FFFFFF;startArrow=classic;startFill=1;" parent="WIyWlLk6GJQsqaUBKTNV-1" edge="1">
          <mxGeometry width="50" height="50" relative="1" as="geometry">
            <mxPoint x="407.5" y="3520" as="sourcePoint" />
            <mxPoint x="477.5" y="3520" as="targetPoint" />
          </mxGeometry>
        </mxCell>
        <mxCell id="R1HSc_Sz26Aq6x33Aut7-105" value="" style="endArrow=none;html=1;rounded=0;strokeColor=#FFFFFF;" parent="WIyWlLk6GJQsqaUBKTNV-1" edge="1">
          <mxGeometry width="50" height="50" relative="1" as="geometry">
            <mxPoint x="478" y="3620" as="sourcePoint" />
            <mxPoint x="478" y="3420" as="targetPoint" />
          </mxGeometry>
        </mxCell>
        <mxCell id="R1HSc_Sz26Aq6x33Aut7-106" value="" style="endArrow=none;html=1;rounded=0;strokeColor=#FFFFFF;exitX=0;exitY=0.5;exitDx=0;exitDy=0;" parent="WIyWlLk6GJQsqaUBKTNV-1" edge="1" source="-5ZrnQzwCX1gNfyooeKi-3">
          <mxGeometry width="50" height="50" relative="1" as="geometry">
            <mxPoint x="518" y="3480" as="sourcePoint" />
            <mxPoint x="477.5" y="3480" as="targetPoint" />
          </mxGeometry>
        </mxCell>
        <mxCell id="R1HSc_Sz26Aq6x33Aut7-107" value="" style="endArrow=none;html=1;rounded=0;strokeColor=#FFFFFF;exitX=0;exitY=0.5;exitDx=0;exitDy=0;" parent="WIyWlLk6GJQsqaUBKTNV-1" edge="1" source="-5ZrnQzwCX1gNfyooeKi-4">
          <mxGeometry width="50" height="50" relative="1" as="geometry">
            <mxPoint x="517.5" y="3560" as="sourcePoint" />
            <mxPoint x="477.5" y="3560" as="targetPoint" />
            <Array as="points">
              <mxPoint x="507.5" y="3560" />
            </Array>
          </mxGeometry>
        </mxCell>
        <mxCell id="R1HSc_Sz26Aq6x33Aut7-110" value="" style="endArrow=none;html=1;rounded=0;strokeColor=#FFFFFF;startArrow=classic;startFill=1;exitX=1;exitY=0.5;exitDx=0;exitDy=0;" parent="WIyWlLk6GJQsqaUBKTNV-1" edge="1" source="-5ZrnQzwCX1gNfyooeKi-3">
          <mxGeometry width="50" height="50" relative="1" as="geometry">
            <mxPoint x="647.5" y="3479.29" as="sourcePoint" />
            <mxPoint x="717.5" y="3479.29" as="targetPoint" />
          </mxGeometry>
        </mxCell>
        <mxCell id="R1HSc_Sz26Aq6x33Aut7-111" value="" style="endArrow=none;html=1;rounded=0;strokeColor=#FFFFFF;startArrow=classic;startFill=1;exitX=1;exitY=0.5;exitDx=0;exitDy=0;" parent="WIyWlLk6GJQsqaUBKTNV-1" edge="1" source="-5ZrnQzwCX1gNfyooeKi-4">
          <mxGeometry width="50" height="50" relative="1" as="geometry">
            <mxPoint x="647.5" y="3559.29" as="sourcePoint" />
            <mxPoint x="717.5" y="3559.29" as="targetPoint" />
          </mxGeometry>
        </mxCell>
        <mxCell id="R1HSc_Sz26Aq6x33Aut7-112" value="" style="endArrow=none;html=1;rounded=0;strokeColor=#FFFFFF;" parent="WIyWlLk6GJQsqaUBKTNV-1" edge="1">
          <mxGeometry width="50" height="50" relative="1" as="geometry">
            <mxPoint x="718" y="3680" as="sourcePoint" />
            <mxPoint x="718" y="3420" as="targetPoint" />
          </mxGeometry>
        </mxCell>
        <mxCell id="R1HSc_Sz26Aq6x33Aut7-113" value="&lt;font color=&quot;#ffffff&quot;&gt;&amp;lt;выр.отношения&amp;gt;&lt;/font&gt;" style="text;html=1;strokeColor=none;fillColor=none;align=center;verticalAlign=middle;whiteSpace=wrap;rounded=0;labelBackgroundColor=none;fontColor=#1A1A1A;" parent="WIyWlLk6GJQsqaUBKTNV-1" vertex="1">
          <mxGeometry x="-180" y="3650" width="90" height="30" as="geometry" />
        </mxCell>
        <mxCell id="R1HSc_Sz26Aq6x33Aut7-114" value="" style="endArrow=none;html=1;rounded=0;strokeColor=#FFFFFF;exitX=0;exitY=0.5;exitDx=0;exitDy=0;" parent="WIyWlLk6GJQsqaUBKTNV-1" edge="1" source="-5ZrnQzwCX1gNfyooeKi-2">
          <mxGeometry width="50" height="50" relative="1" as="geometry">
            <mxPoint x="520" y="3420" as="sourcePoint" />
            <mxPoint x="480" y="3420" as="targetPoint" />
            <Array as="points">
              <mxPoint x="510" y="3420" />
            </Array>
          </mxGeometry>
        </mxCell>
        <mxCell id="R1HSc_Sz26Aq6x33Aut7-116" value="" style="endArrow=none;html=1;rounded=0;strokeColor=#FFFFFF;exitX=0;exitY=0.5;exitDx=0;exitDy=0;" parent="WIyWlLk6GJQsqaUBKTNV-1" edge="1" source="-5ZrnQzwCX1gNfyooeKi-5">
          <mxGeometry width="50" height="50" relative="1" as="geometry">
            <mxPoint x="520" y="3620" as="sourcePoint" />
            <mxPoint x="480" y="3620" as="targetPoint" />
            <Array as="points">
              <mxPoint x="510" y="3620" />
            </Array>
          </mxGeometry>
        </mxCell>
        <mxCell id="R1HSc_Sz26Aq6x33Aut7-118" value="" style="endArrow=none;html=1;rounded=0;strokeColor=#FFFFFF;startArrow=classic;startFill=1;exitX=1;exitY=0.5;exitDx=0;exitDy=0;" parent="WIyWlLk6GJQsqaUBKTNV-1" source="-5ZrnQzwCX1gNfyooeKi-5" edge="1">
          <mxGeometry width="50" height="50" relative="1" as="geometry">
            <mxPoint x="650" y="3620" as="sourcePoint" />
            <mxPoint x="720" y="3620" as="targetPoint" />
            <Array as="points">
              <mxPoint x="680" y="3620" />
            </Array>
          </mxGeometry>
        </mxCell>
        <mxCell id="R1HSc_Sz26Aq6x33Aut7-119" value="" style="endArrow=none;html=1;rounded=0;strokeColor=#FFFFFF;startArrow=classic;startFill=1;exitX=1;exitY=0.5;exitDx=0;exitDy=0;" parent="WIyWlLk6GJQsqaUBKTNV-1" source="-5ZrnQzwCX1gNfyooeKi-2" edge="1">
          <mxGeometry width="50" height="50" relative="1" as="geometry">
            <mxPoint x="650" y="3420" as="sourcePoint" />
            <mxPoint x="720" y="3420" as="targetPoint" />
            <Array as="points">
              <mxPoint x="680" y="3420" />
            </Array>
          </mxGeometry>
        </mxCell>
        <mxCell id="R1HSc_Sz26Aq6x33Aut7-134" value="" style="endArrow=none;html=1;rounded=0;strokeColor=#FFFFFF;entryX=0;entryY=0.5;entryDx=0;entryDy=0;" parent="WIyWlLk6GJQsqaUBKTNV-1" target="R1HSc_Sz26Aq6x33Aut7-149" edge="1">
          <mxGeometry width="50" height="50" relative="1" as="geometry">
            <mxPoint x="-185" y="3910" as="sourcePoint" />
            <mxPoint x="60" y="3910" as="targetPoint" />
          </mxGeometry>
        </mxCell>
        <mxCell id="R1HSc_Sz26Aq6x33Aut7-135" value="&lt;font color=&quot;#ffffff&quot;&gt;&amp;lt;слагаемое&amp;gt;&lt;/font&gt;" style="text;html=1;strokeColor=none;fillColor=none;align=center;verticalAlign=middle;whiteSpace=wrap;rounded=0;labelBackgroundColor=none;fontColor=#1A1A1A;" parent="WIyWlLk6GJQsqaUBKTNV-1" vertex="1">
          <mxGeometry x="-190" y="3880" width="90" height="30" as="geometry" />
        </mxCell>
        <mxCell id="R1HSc_Sz26Aq6x33Aut7-136" value="" style="endArrow=classic;html=1;rounded=0;strokeColor=#FFFFFF;startArrow=none;startFill=0;endFill=1;" parent="WIyWlLk6GJQsqaUBKTNV-1" edge="1">
          <mxGeometry width="50" height="50" relative="1" as="geometry">
            <mxPoint x="190" y="3908.57" as="sourcePoint" />
            <mxPoint x="820" y="3909" as="targetPoint" />
          </mxGeometry>
        </mxCell>
        <mxCell id="R1HSc_Sz26Aq6x33Aut7-137" value="" style="endArrow=none;html=1;rounded=0;strokeColor=#FFFFFF;startArrow=classic;startFill=1;" parent="WIyWlLk6GJQsqaUBKTNV-1" edge="1">
          <mxGeometry width="50" height="50" relative="1" as="geometry">
            <mxPoint x="260" y="3910" as="sourcePoint" />
            <mxPoint x="260" y="3830" as="targetPoint" />
          </mxGeometry>
        </mxCell>
        <mxCell id="R1HSc_Sz26Aq6x33Aut7-138" value="&amp;lt;множитель&amp;gt;" style="rounded=0;whiteSpace=wrap;html=1;strokeColor=#FFFFFF;fontColor=#1A1A1A;fillColor=#EEEEEE;" parent="WIyWlLk6GJQsqaUBKTNV-1" vertex="1">
          <mxGeometry x="295" y="3810" width="130" height="40" as="geometry" />
        </mxCell>
        <mxCell id="R1HSc_Sz26Aq6x33Aut7-139" value="" style="endArrow=none;html=1;rounded=0;strokeColor=#FFFFFF;entryX=0;entryY=0.5;entryDx=0;entryDy=0;" parent="WIyWlLk6GJQsqaUBKTNV-1" target="R1HSc_Sz26Aq6x33Aut7-138" edge="1">
          <mxGeometry width="50" height="50" relative="1" as="geometry">
            <mxPoint x="260" y="3830" as="sourcePoint" />
            <mxPoint x="445" y="3918.57" as="targetPoint" />
          </mxGeometry>
        </mxCell>
        <mxCell id="R1HSc_Sz26Aq6x33Aut7-140" value="" style="endArrow=none;html=1;rounded=0;strokeColor=#FFFFFF;startArrow=classic;startFill=1;" parent="WIyWlLk6GJQsqaUBKTNV-1" edge="1">
          <mxGeometry width="50" height="50" relative="1" as="geometry">
            <mxPoint x="430" y="3830" as="sourcePoint" />
            <mxPoint x="500" y="3830" as="targetPoint" />
          </mxGeometry>
        </mxCell>
        <mxCell id="R1HSc_Sz26Aq6x33Aut7-141" value="" style="endArrow=none;html=1;rounded=0;strokeColor=#FFFFFF;" parent="WIyWlLk6GJQsqaUBKTNV-1" edge="1">
          <mxGeometry width="50" height="50" relative="1" as="geometry">
            <mxPoint x="500" y="3870" as="sourcePoint" />
            <mxPoint x="500" y="3790" as="targetPoint" />
          </mxGeometry>
        </mxCell>
        <mxCell id="R1HSc_Sz26Aq6x33Aut7-142" value="" style="endArrow=none;html=1;rounded=0;strokeColor=#FFFFFF;exitX=0;exitY=0.5;exitDx=0;exitDy=0;" parent="WIyWlLk6GJQsqaUBKTNV-1" edge="1" source="-5ZrnQzwCX1gNfyooeKi-6">
          <mxGeometry width="50" height="50" relative="1" as="geometry">
            <mxPoint x="540" y="3790" as="sourcePoint" />
            <mxPoint x="500" y="3790" as="targetPoint" />
          </mxGeometry>
        </mxCell>
        <mxCell id="R1HSc_Sz26Aq6x33Aut7-143" value="" style="endArrow=none;html=1;rounded=0;strokeColor=#FFFFFF;exitX=0;exitY=0.5;exitDx=0;exitDy=0;" parent="WIyWlLk6GJQsqaUBKTNV-1" edge="1" source="-5ZrnQzwCX1gNfyooeKi-7">
          <mxGeometry width="50" height="50" relative="1" as="geometry">
            <mxPoint x="540" y="3870" as="sourcePoint" />
            <mxPoint x="500" y="3870" as="targetPoint" />
            <Array as="points">
              <mxPoint x="530" y="3870" />
            </Array>
          </mxGeometry>
        </mxCell>
        <mxCell id="R1HSc_Sz26Aq6x33Aut7-145" value="" style="endArrow=none;html=1;rounded=0;strokeColor=#FFFFFF;startArrow=classic;startFill=1;exitX=1;exitY=0.5;exitDx=0;exitDy=0;" parent="WIyWlLk6GJQsqaUBKTNV-1" edge="1" source="-5ZrnQzwCX1gNfyooeKi-6">
          <mxGeometry width="50" height="50" relative="1" as="geometry">
            <mxPoint x="670" y="3789.29" as="sourcePoint" />
            <mxPoint x="740" y="3789.29" as="targetPoint" />
          </mxGeometry>
        </mxCell>
        <mxCell id="R1HSc_Sz26Aq6x33Aut7-146" value="" style="endArrow=none;html=1;rounded=0;strokeColor=#FFFFFF;startArrow=classic;startFill=1;exitX=1;exitY=0.5;exitDx=0;exitDy=0;" parent="WIyWlLk6GJQsqaUBKTNV-1" edge="1" source="-5ZrnQzwCX1gNfyooeKi-7">
          <mxGeometry width="50" height="50" relative="1" as="geometry">
            <mxPoint x="670" y="3869.29" as="sourcePoint" />
            <mxPoint x="740" y="3869.29" as="targetPoint" />
          </mxGeometry>
        </mxCell>
        <mxCell id="R1HSc_Sz26Aq6x33Aut7-147" value="" style="endArrow=none;html=1;rounded=0;strokeColor=#FFFFFF;" parent="WIyWlLk6GJQsqaUBKTNV-1" edge="1">
          <mxGeometry width="50" height="50" relative="1" as="geometry">
            <mxPoint x="740" y="3910" as="sourcePoint" />
            <mxPoint x="740" y="3790" as="targetPoint" />
          </mxGeometry>
        </mxCell>
        <mxCell id="R1HSc_Sz26Aq6x33Aut7-149" value="&amp;lt;множитель&amp;gt;" style="rounded=0;whiteSpace=wrap;html=1;strokeColor=#FFFFFF;fontColor=#1A1A1A;fillColor=#EEEEEE;" parent="WIyWlLk6GJQsqaUBKTNV-1" vertex="1">
          <mxGeometry x="75" y="3890" width="130" height="40" as="geometry" />
        </mxCell>
        <mxCell id="R1HSc_Sz26Aq6x33Aut7-150" value="" style="endArrow=none;html=1;rounded=0;strokeColor=#FFFFFF;" parent="WIyWlLk6GJQsqaUBKTNV-1" edge="1">
          <mxGeometry width="50" height="50" relative="1" as="geometry">
            <mxPoint x="-178" y="4170" as="sourcePoint" />
            <mxPoint x="67" y="4170" as="targetPoint" />
          </mxGeometry>
        </mxCell>
        <mxCell id="R1HSc_Sz26Aq6x33Aut7-151" value="&lt;font color=&quot;#ffffff&quot;&gt;&amp;lt;множитель&amp;gt;&lt;/font&gt;" style="text;html=1;strokeColor=none;fillColor=none;align=center;verticalAlign=middle;whiteSpace=wrap;rounded=0;labelBackgroundColor=none;fontColor=#1A1A1A;" parent="WIyWlLk6GJQsqaUBKTNV-1" vertex="1">
          <mxGeometry x="-183" y="4140" width="90" height="30" as="geometry" />
        </mxCell>
        <mxCell id="R1HSc_Sz26Aq6x33Aut7-152" value="" style="endArrow=classic;html=1;rounded=0;strokeColor=#FFFFFF;startArrow=none;startFill=0;endFill=1;" parent="WIyWlLk6GJQsqaUBKTNV-1" edge="1">
          <mxGeometry width="50" height="50" relative="1" as="geometry">
            <mxPoint x="197" y="4168.57" as="sourcePoint" />
            <mxPoint x="827" y="4169" as="targetPoint" />
          </mxGeometry>
        </mxCell>
        <mxCell id="R1HSc_Sz26Aq6x33Aut7-153" value="" style="endArrow=none;html=1;rounded=0;strokeColor=#FFFFFF;startArrow=classic;startFill=1;" parent="WIyWlLk6GJQsqaUBKTNV-1" edge="1">
          <mxGeometry width="50" height="50" relative="1" as="geometry">
            <mxPoint x="267" y="4170" as="sourcePoint" />
            <mxPoint x="267" y="4090" as="targetPoint" />
          </mxGeometry>
        </mxCell>
        <mxCell id="R1HSc_Sz26Aq6x33Aut7-154" value="&amp;lt;унар.операции&amp;gt;" style="rounded=0;whiteSpace=wrap;html=1;strokeColor=#FFFFFF;fontColor=#1A1A1A;fillColor=#EEEEEE;" parent="WIyWlLk6GJQsqaUBKTNV-1" vertex="1">
          <mxGeometry x="302" y="4070" width="130" height="40" as="geometry" />
        </mxCell>
        <mxCell id="R1HSc_Sz26Aq6x33Aut7-155" value="" style="endArrow=none;html=1;rounded=0;strokeColor=#FFFFFF;entryX=0;entryY=0.5;entryDx=0;entryDy=0;" parent="WIyWlLk6GJQsqaUBKTNV-1" target="R1HSc_Sz26Aq6x33Aut7-154" edge="1">
          <mxGeometry width="50" height="50" relative="1" as="geometry">
            <mxPoint x="267" y="4090" as="sourcePoint" />
            <mxPoint x="452" y="4178.57" as="targetPoint" />
          </mxGeometry>
        </mxCell>
        <mxCell id="R1HSc_Sz26Aq6x33Aut7-156" value="" style="endArrow=none;html=1;rounded=0;strokeColor=#FFFFFF;startArrow=classic;startFill=1;" parent="WIyWlLk6GJQsqaUBKTNV-1" edge="1">
          <mxGeometry width="50" height="50" relative="1" as="geometry">
            <mxPoint x="437" y="4090" as="sourcePoint" />
            <mxPoint x="507" y="4090" as="targetPoint" />
          </mxGeometry>
        </mxCell>
        <mxCell id="R1HSc_Sz26Aq6x33Aut7-157" value="" style="endArrow=none;html=1;rounded=0;strokeColor=#FFFFFF;" parent="WIyWlLk6GJQsqaUBKTNV-1" edge="1">
          <mxGeometry width="50" height="50" relative="1" as="geometry">
            <mxPoint x="507" y="4130" as="sourcePoint" />
            <mxPoint x="507" y="3980" as="targetPoint" />
          </mxGeometry>
        </mxCell>
        <mxCell id="R1HSc_Sz26Aq6x33Aut7-158" value="" style="endArrow=none;html=1;rounded=0;strokeColor=#FFFFFF;" parent="WIyWlLk6GJQsqaUBKTNV-1" edge="1">
          <mxGeometry width="50" height="50" relative="1" as="geometry">
            <mxPoint x="570" y="4050" as="sourcePoint" />
            <mxPoint x="507" y="4050" as="targetPoint" />
          </mxGeometry>
        </mxCell>
        <mxCell id="R1HSc_Sz26Aq6x33Aut7-159" value="" style="endArrow=none;html=1;rounded=0;strokeColor=#FFFFFF;exitX=0;exitY=0.5;exitDx=0;exitDy=0;" parent="WIyWlLk6GJQsqaUBKTNV-1" edge="1" source="-5ZrnQzwCX1gNfyooeKi-10">
          <mxGeometry width="50" height="50" relative="1" as="geometry">
            <mxPoint x="547" y="4130" as="sourcePoint" />
            <mxPoint x="507" y="4130" as="targetPoint" />
            <Array as="points">
              <mxPoint x="537" y="4130" />
            </Array>
          </mxGeometry>
        </mxCell>
        <mxCell id="R1HSc_Sz26Aq6x33Aut7-161" value="" style="endArrow=none;html=1;rounded=0;strokeColor=#FFFFFF;startArrow=classic;startFill=1;exitX=1;exitY=0.5;exitDx=0;exitDy=0;" parent="WIyWlLk6GJQsqaUBKTNV-1" edge="1" source="-5ZrnQzwCX1gNfyooeKi-9">
          <mxGeometry width="50" height="50" relative="1" as="geometry">
            <mxPoint x="677" y="4049.29" as="sourcePoint" />
            <mxPoint x="747" y="4049.29" as="targetPoint" />
          </mxGeometry>
        </mxCell>
        <mxCell id="R1HSc_Sz26Aq6x33Aut7-162" value="" style="endArrow=none;html=1;rounded=0;strokeColor=#FFFFFF;startArrow=classic;startFill=1;exitX=1;exitY=0.5;exitDx=0;exitDy=0;" parent="WIyWlLk6GJQsqaUBKTNV-1" edge="1" source="-5ZrnQzwCX1gNfyooeKi-10">
          <mxGeometry width="50" height="50" relative="1" as="geometry">
            <mxPoint x="677" y="4129.29" as="sourcePoint" />
            <mxPoint x="747" y="4129.29" as="targetPoint" />
          </mxGeometry>
        </mxCell>
        <mxCell id="R1HSc_Sz26Aq6x33Aut7-163" value="" style="endArrow=none;html=1;rounded=0;strokeColor=#FFFFFF;" parent="WIyWlLk6GJQsqaUBKTNV-1" edge="1">
          <mxGeometry width="50" height="50" relative="1" as="geometry">
            <mxPoint x="747" y="4170" as="sourcePoint" />
            <mxPoint x="747" y="3980" as="targetPoint" />
          </mxGeometry>
        </mxCell>
        <mxCell id="R1HSc_Sz26Aq6x33Aut7-165" value="&amp;lt;унар.операции&amp;gt;" style="rounded=0;whiteSpace=wrap;html=1;strokeColor=#FFFFFF;fontColor=#1A1A1A;fillColor=#EEEEEE;" parent="WIyWlLk6GJQsqaUBKTNV-1" vertex="1">
          <mxGeometry x="82" y="4150" width="130" height="40" as="geometry" />
        </mxCell>
        <mxCell id="R1HSc_Sz26Aq6x33Aut7-167" value="" style="endArrow=none;html=1;rounded=0;strokeColor=#FFFFFF;exitX=0;exitY=0.5;exitDx=0;exitDy=0;" parent="WIyWlLk6GJQsqaUBKTNV-1" edge="1" source="-5ZrnQzwCX1gNfyooeKi-8">
          <mxGeometry width="50" height="50" relative="1" as="geometry">
            <mxPoint x="550" y="3979.41" as="sourcePoint" />
            <mxPoint x="510" y="3979" as="targetPoint" />
          </mxGeometry>
        </mxCell>
        <mxCell id="R1HSc_Sz26Aq6x33Aut7-168" value="" style="endArrow=none;html=1;rounded=0;strokeColor=#FFFFFF;startArrow=classic;startFill=1;exitX=1;exitY=0.5;exitDx=0;exitDy=0;" parent="WIyWlLk6GJQsqaUBKTNV-1" edge="1" source="-5ZrnQzwCX1gNfyooeKi-8">
          <mxGeometry width="50" height="50" relative="1" as="geometry">
            <mxPoint x="677" y="3979.41" as="sourcePoint" />
            <mxPoint x="747" y="3979.41" as="targetPoint" />
          </mxGeometry>
        </mxCell>
        <mxCell id="R1HSc_Sz26Aq6x33Aut7-188" value="" style="endArrow=none;html=1;rounded=0;strokeColor=#FFFFFF;entryX=0;entryY=0.5;entryDx=0;entryDy=0;" parent="WIyWlLk6GJQsqaUBKTNV-1" target="R1HSc_Sz26Aq6x33Aut7-202" edge="1">
          <mxGeometry width="50" height="50" relative="1" as="geometry">
            <mxPoint x="-178" y="4370" as="sourcePoint" />
            <mxPoint x="67" y="4370" as="targetPoint" />
          </mxGeometry>
        </mxCell>
        <mxCell id="R1HSc_Sz26Aq6x33Aut7-189" value="&lt;font color=&quot;#ffffff&quot;&gt;&amp;lt;унар.операция&amp;gt;&lt;/font&gt;" style="text;html=1;strokeColor=none;fillColor=none;align=center;verticalAlign=middle;whiteSpace=wrap;rounded=0;labelBackgroundColor=none;fontColor=#1A1A1A;" parent="WIyWlLk6GJQsqaUBKTNV-1" vertex="1">
          <mxGeometry x="-183" y="4340" width="90" height="30" as="geometry" />
        </mxCell>
        <mxCell id="R1HSc_Sz26Aq6x33Aut7-190" value="" style="endArrow=none;html=1;rounded=0;strokeColor=#FFFFFF;startArrow=classic;startFill=1;" parent="WIyWlLk6GJQsqaUBKTNV-1" edge="1">
          <mxGeometry width="50" height="50" relative="1" as="geometry">
            <mxPoint x="267" y="4370" as="sourcePoint" />
            <mxPoint x="267" y="4290" as="targetPoint" />
          </mxGeometry>
        </mxCell>
        <mxCell id="R1HSc_Sz26Aq6x33Aut7-191" value="&amp;lt;эл.выражение&amp;gt;" style="rounded=0;whiteSpace=wrap;html=1;strokeColor=#FFFFFF;fontColor=#1A1A1A;fillColor=#EEEEEE;" parent="WIyWlLk6GJQsqaUBKTNV-1" vertex="1">
          <mxGeometry x="302" y="4270" width="130" height="40" as="geometry" />
        </mxCell>
        <mxCell id="R1HSc_Sz26Aq6x33Aut7-192" value="" style="endArrow=none;html=1;rounded=0;strokeColor=#FFFFFF;entryX=0;entryY=0.5;entryDx=0;entryDy=0;" parent="WIyWlLk6GJQsqaUBKTNV-1" target="R1HSc_Sz26Aq6x33Aut7-191" edge="1">
          <mxGeometry width="50" height="50" relative="1" as="geometry">
            <mxPoint x="267" y="4290" as="sourcePoint" />
            <mxPoint x="452" y="4378.57" as="targetPoint" />
          </mxGeometry>
        </mxCell>
        <mxCell id="R1HSc_Sz26Aq6x33Aut7-193" value="" style="endArrow=none;html=1;rounded=0;strokeColor=#FFFFFF;startArrow=classic;startFill=1;" parent="WIyWlLk6GJQsqaUBKTNV-1" edge="1">
          <mxGeometry width="50" height="50" relative="1" as="geometry">
            <mxPoint x="437" y="4290" as="sourcePoint" />
            <mxPoint x="507" y="4290" as="targetPoint" />
          </mxGeometry>
        </mxCell>
        <mxCell id="R1HSc_Sz26Aq6x33Aut7-194" value="" style="endArrow=none;html=1;rounded=0;strokeColor=#FFFFFF;" parent="WIyWlLk6GJQsqaUBKTNV-1" edge="1">
          <mxGeometry width="50" height="50" relative="1" as="geometry">
            <mxPoint x="507" y="4330" as="sourcePoint" />
            <mxPoint x="507" y="4250" as="targetPoint" />
          </mxGeometry>
        </mxCell>
        <mxCell id="R1HSc_Sz26Aq6x33Aut7-195" value="" style="endArrow=none;html=1;rounded=0;strokeColor=#FFFFFF;exitX=0;exitY=0.5;exitDx=0;exitDy=0;" parent="WIyWlLk6GJQsqaUBKTNV-1" edge="1" source="-5ZrnQzwCX1gNfyooeKi-11">
          <mxGeometry width="50" height="50" relative="1" as="geometry">
            <mxPoint x="547" y="4250" as="sourcePoint" />
            <mxPoint x="507" y="4250" as="targetPoint" />
          </mxGeometry>
        </mxCell>
        <mxCell id="R1HSc_Sz26Aq6x33Aut7-196" value="" style="endArrow=none;html=1;rounded=0;strokeColor=#FFFFFF;exitX=0;exitY=0.5;exitDx=0;exitDy=0;" parent="WIyWlLk6GJQsqaUBKTNV-1" edge="1" source="-5ZrnQzwCX1gNfyooeKi-12">
          <mxGeometry width="50" height="50" relative="1" as="geometry">
            <mxPoint x="547" y="4330" as="sourcePoint" />
            <mxPoint x="507" y="4330" as="targetPoint" />
            <Array as="points">
              <mxPoint x="537" y="4330" />
            </Array>
          </mxGeometry>
        </mxCell>
        <mxCell id="R1HSc_Sz26Aq6x33Aut7-198" value="" style="endArrow=none;html=1;rounded=0;strokeColor=#FFFFFF;startArrow=classic;startFill=1;exitX=1;exitY=0.5;exitDx=0;exitDy=0;" parent="WIyWlLk6GJQsqaUBKTNV-1" edge="1" source="-5ZrnQzwCX1gNfyooeKi-11">
          <mxGeometry width="50" height="50" relative="1" as="geometry">
            <mxPoint x="677" y="4249.29" as="sourcePoint" />
            <mxPoint x="747" y="4249.29" as="targetPoint" />
          </mxGeometry>
        </mxCell>
        <mxCell id="R1HSc_Sz26Aq6x33Aut7-199" value="" style="endArrow=none;html=1;rounded=0;strokeColor=#FFFFFF;startArrow=classic;startFill=1;exitX=1;exitY=0.5;exitDx=0;exitDy=0;" parent="WIyWlLk6GJQsqaUBKTNV-1" edge="1" source="-5ZrnQzwCX1gNfyooeKi-12">
          <mxGeometry width="50" height="50" relative="1" as="geometry">
            <mxPoint x="677" y="4329.29" as="sourcePoint" />
            <mxPoint x="747" y="4329.29" as="targetPoint" />
          </mxGeometry>
        </mxCell>
        <mxCell id="R1HSc_Sz26Aq6x33Aut7-200" value="" style="endArrow=none;html=1;rounded=0;strokeColor=#FFFFFF;" parent="WIyWlLk6GJQsqaUBKTNV-1" edge="1">
          <mxGeometry width="50" height="50" relative="1" as="geometry">
            <mxPoint x="747" y="4370" as="sourcePoint" />
            <mxPoint x="747" y="4250" as="targetPoint" />
          </mxGeometry>
        </mxCell>
        <mxCell id="R1HSc_Sz26Aq6x33Aut7-202" value="&amp;lt;эл.выражение&amp;gt;" style="rounded=0;whiteSpace=wrap;html=1;strokeColor=#FFFFFF;fontColor=#1A1A1A;fillColor=#EEEEEE;" parent="WIyWlLk6GJQsqaUBKTNV-1" vertex="1">
          <mxGeometry x="82" y="4350" width="130" height="40" as="geometry" />
        </mxCell>
        <mxCell id="R1HSc_Sz26Aq6x33Aut7-203" value="" style="endArrow=none;html=1;rounded=0;strokeColor=#FFFFFF;" parent="WIyWlLk6GJQsqaUBKTNV-1" edge="1">
          <mxGeometry width="50" height="50" relative="1" as="geometry">
            <mxPoint x="212" y="4369.29" as="sourcePoint" />
            <mxPoint x="750" y="4370" as="targetPoint" />
          </mxGeometry>
        </mxCell>
        <mxCell id="R1HSc_Sz26Aq6x33Aut7-204" value="" style="endArrow=none;html=1;rounded=0;strokeColor=#FFFFFF;" parent="WIyWlLk6GJQsqaUBKTNV-1" edge="1">
          <mxGeometry width="50" height="50" relative="1" as="geometry">
            <mxPoint x="-170" y="4560" as="sourcePoint" />
            <mxPoint x="90" y="4560" as="targetPoint" />
          </mxGeometry>
        </mxCell>
        <mxCell id="R1HSc_Sz26Aq6x33Aut7-205" value="&amp;lt;константа&amp;gt;" style="rounded=0;whiteSpace=wrap;html=1;strokeColor=#FFFFFF;fontColor=#1A1A1A;fillColor=#EEEEEE;" parent="WIyWlLk6GJQsqaUBKTNV-1" vertex="1">
          <mxGeometry x="90" y="4540" width="130" height="40" as="geometry" />
        </mxCell>
        <mxCell id="R1HSc_Sz26Aq6x33Aut7-206" value="&lt;font color=&quot;#ffffff&quot;&gt;&amp;lt;эл.выражение&amp;gt;&lt;/font&gt;" style="text;html=1;strokeColor=none;fillColor=none;align=center;verticalAlign=middle;whiteSpace=wrap;rounded=0;labelBackgroundColor=none;fontColor=#1A1A1A;" parent="WIyWlLk6GJQsqaUBKTNV-1" vertex="1">
          <mxGeometry x="-170" y="4530" width="90" height="30" as="geometry" />
        </mxCell>
        <mxCell id="R1HSc_Sz26Aq6x33Aut7-207" value="&amp;lt;идентификатор&amp;gt;" style="rounded=0;whiteSpace=wrap;html=1;strokeColor=#FFFFFF;fontColor=#1A1A1A;fillColor=#EEEEEE;" parent="WIyWlLk6GJQsqaUBKTNV-1" vertex="1">
          <mxGeometry x="90" y="4440" width="130" height="40" as="geometry" />
        </mxCell>
        <mxCell id="R1HSc_Sz26Aq6x33Aut7-208" value="" style="endArrow=none;html=1;rounded=0;strokeColor=#FFFFFF;" parent="WIyWlLk6GJQsqaUBKTNV-1" edge="1">
          <mxGeometry width="50" height="50" relative="1" as="geometry">
            <mxPoint x="40" y="4460" as="sourcePoint" />
            <mxPoint x="40" y="4560" as="targetPoint" />
          </mxGeometry>
        </mxCell>
        <mxCell id="R1HSc_Sz26Aq6x33Aut7-209" value="" style="endArrow=none;html=1;rounded=0;strokeColor=#FFFFFF;exitX=0;exitY=0.5;exitDx=0;exitDy=0;" parent="WIyWlLk6GJQsqaUBKTNV-1" source="R1HSc_Sz26Aq6x33Aut7-207" edge="1">
          <mxGeometry width="50" height="50" relative="1" as="geometry">
            <mxPoint x="50" y="4470" as="sourcePoint" />
            <mxPoint x="40" y="4460" as="targetPoint" />
          </mxGeometry>
        </mxCell>
        <mxCell id="R1HSc_Sz26Aq6x33Aut7-210" value="" style="endArrow=none;html=1;rounded=0;strokeColor=#FFFFFF;entryX=1;entryY=0.5;entryDx=0;entryDy=0;" parent="WIyWlLk6GJQsqaUBKTNV-1" target="R1HSc_Sz26Aq6x33Aut7-207" edge="1">
          <mxGeometry width="50" height="50" relative="1" as="geometry">
            <mxPoint x="480" y="4460" as="sourcePoint" />
            <mxPoint x="50" y="4470" as="targetPoint" />
          </mxGeometry>
        </mxCell>
        <mxCell id="R1HSc_Sz26Aq6x33Aut7-211" value="" style="endArrow=none;html=1;rounded=0;strokeColor=#FFFFFF;entryX=1;entryY=0.5;entryDx=0;entryDy=0;endFill=0;startArrow=classic;startFill=1;" parent="WIyWlLk6GJQsqaUBKTNV-1" edge="1">
          <mxGeometry width="50" height="50" relative="1" as="geometry">
            <mxPoint x="600" y="4559" as="sourcePoint" />
            <mxPoint x="220" y="4558.57" as="targetPoint" />
          </mxGeometry>
        </mxCell>
        <mxCell id="R1HSc_Sz26Aq6x33Aut7-212" value="" style="endArrow=none;html=1;rounded=0;strokeColor=#FFFFFF;" parent="WIyWlLk6GJQsqaUBKTNV-1" edge="1">
          <mxGeometry width="50" height="50" relative="1" as="geometry">
            <mxPoint x="480" y="4460" as="sourcePoint" />
            <mxPoint x="480" y="4640" as="targetPoint" />
          </mxGeometry>
        </mxCell>
        <mxCell id="R1HSc_Sz26Aq6x33Aut7-213" value="" style="endArrow=none;html=1;rounded=0;strokeColor=#FFFFFF;" parent="WIyWlLk6GJQsqaUBKTNV-1" edge="1">
          <mxGeometry width="50" height="50" relative="1" as="geometry">
            <mxPoint x="40" y="4560" as="sourcePoint" />
            <mxPoint x="40" y="4640" as="targetPoint" />
          </mxGeometry>
        </mxCell>
        <mxCell id="R1HSc_Sz26Aq6x33Aut7-214" value="" style="endArrow=none;html=1;rounded=0;strokeColor=#FFFFFF;" parent="WIyWlLk6GJQsqaUBKTNV-1" edge="1">
          <mxGeometry width="50" height="50" relative="1" as="geometry">
            <mxPoint x="40" y="4640" as="sourcePoint" />
            <mxPoint x="80" y="4640" as="targetPoint" />
          </mxGeometry>
        </mxCell>
        <mxCell id="R1HSc_Sz26Aq6x33Aut7-216" value="" style="endArrow=none;html=1;rounded=0;strokeColor=#FFFFFF;exitX=1;exitY=0.5;exitDx=0;exitDy=0;" parent="WIyWlLk6GJQsqaUBKTNV-1" edge="1">
          <mxGeometry width="50" height="50" relative="1" as="geometry">
            <mxPoint x="160" y="4640" as="sourcePoint" />
            <mxPoint x="200" y="4640" as="targetPoint" />
          </mxGeometry>
        </mxCell>
        <mxCell id="R1HSc_Sz26Aq6x33Aut7-217" value="&amp;lt;выражение&amp;gt;" style="rounded=0;whiteSpace=wrap;html=1;strokeColor=#FFFFFF;fontColor=#1A1A1A;fillColor=#EEEEEE;" parent="WIyWlLk6GJQsqaUBKTNV-1" vertex="1">
          <mxGeometry x="200" y="4620" width="130" height="40" as="geometry" />
        </mxCell>
        <mxCell id="R1HSc_Sz26Aq6x33Aut7-219" value="" style="endArrow=none;html=1;rounded=0;strokeColor=#FFFFFF;exitX=1;exitY=0.5;exitDx=0;exitDy=0;" parent="WIyWlLk6GJQsqaUBKTNV-1" edge="1">
          <mxGeometry width="50" height="50" relative="1" as="geometry">
            <mxPoint x="440" y="4639.58" as="sourcePoint" />
            <mxPoint x="480" y="4639.58" as="targetPoint" />
          </mxGeometry>
        </mxCell>
        <mxCell id="R1HSc_Sz26Aq6x33Aut7-220" value="" style="endArrow=none;html=1;rounded=0;strokeColor=#FFFFFF;" parent="WIyWlLk6GJQsqaUBKTNV-1" edge="1">
          <mxGeometry width="50" height="50" relative="1" as="geometry">
            <mxPoint x="-165" y="4820" as="sourcePoint" />
            <mxPoint x="95" y="4820" as="targetPoint" />
          </mxGeometry>
        </mxCell>
        <mxCell id="R1HSc_Sz26Aq6x33Aut7-221" value="&amp;lt;константа целая&amp;gt;" style="rounded=0;whiteSpace=wrap;html=1;strokeColor=#FFFFFF;fontColor=#1A1A1A;fillColor=#EEEEEE;" parent="WIyWlLk6GJQsqaUBKTNV-1" vertex="1">
          <mxGeometry x="95" y="4800" width="130" height="40" as="geometry" />
        </mxCell>
        <mxCell id="R1HSc_Sz26Aq6x33Aut7-222" value="&lt;font color=&quot;#ffffff&quot;&gt;&amp;lt;константа &amp;gt;&lt;/font&gt;" style="text;html=1;strokeColor=none;fillColor=none;align=center;verticalAlign=middle;whiteSpace=wrap;rounded=0;labelBackgroundColor=none;fontColor=#1A1A1A;" parent="WIyWlLk6GJQsqaUBKTNV-1" vertex="1">
          <mxGeometry x="-165" y="4790" width="90" height="30" as="geometry" />
        </mxCell>
        <mxCell id="R1HSc_Sz26Aq6x33Aut7-227" value="" style="endArrow=none;html=1;rounded=0;strokeColor=#FFFFFF;entryX=1;entryY=0.5;entryDx=0;entryDy=0;endFill=0;startArrow=classic;startFill=1;" parent="WIyWlLk6GJQsqaUBKTNV-1" edge="1">
          <mxGeometry width="50" height="50" relative="1" as="geometry">
            <mxPoint x="605" y="4819" as="sourcePoint" />
            <mxPoint x="225" y="4818.57" as="targetPoint" />
          </mxGeometry>
        </mxCell>
        <mxCell id="R1HSc_Sz26Aq6x33Aut7-236" value="" style="endArrow=none;html=1;rounded=0;strokeColor=#FFFFFF;" parent="WIyWlLk6GJQsqaUBKTNV-1" edge="1">
          <mxGeometry width="50" height="50" relative="1" as="geometry">
            <mxPoint x="-165" y="4930" as="sourcePoint" />
            <mxPoint x="95" y="4930" as="targetPoint" />
          </mxGeometry>
        </mxCell>
        <mxCell id="R1HSc_Sz26Aq6x33Aut7-237" value="&amp;lt;идентификатор&amp;gt;" style="rounded=0;whiteSpace=wrap;html=1;strokeColor=#FFFFFF;fontColor=#1A1A1A;fillColor=#EEEEEE;" parent="WIyWlLk6GJQsqaUBKTNV-1" vertex="1">
          <mxGeometry x="95" y="4910" width="130" height="40" as="geometry" />
        </mxCell>
        <mxCell id="R1HSc_Sz26Aq6x33Aut7-238" value="&lt;font color=&quot;#ffffff&quot;&gt;&amp;lt;вызов функции&amp;gt;&lt;/font&gt;" style="text;html=1;strokeColor=none;fillColor=none;align=center;verticalAlign=middle;whiteSpace=wrap;rounded=0;labelBackgroundColor=none;fontColor=#1A1A1A;" parent="WIyWlLk6GJQsqaUBKTNV-1" vertex="1">
          <mxGeometry x="-165" y="4900" width="90" height="30" as="geometry" />
        </mxCell>
        <mxCell id="R1HSc_Sz26Aq6x33Aut7-239" value="" style="endArrow=none;html=1;rounded=0;strokeColor=#FFFFFF;entryX=1;entryY=0.5;entryDx=0;entryDy=0;endFill=0;startArrow=none;startFill=0;" parent="WIyWlLk6GJQsqaUBKTNV-1" source="R1HSc_Sz26Aq6x33Aut7-240" edge="1">
          <mxGeometry width="50" height="50" relative="1" as="geometry">
            <mxPoint x="605" y="4929" as="sourcePoint" />
            <mxPoint x="225" y="4928.57" as="targetPoint" />
          </mxGeometry>
        </mxCell>
        <mxCell id="R1HSc_Sz26Aq6x33Aut7-241" value="" style="endArrow=none;html=1;rounded=0;strokeColor=#FFFFFF;entryX=1;entryY=0.5;entryDx=0;entryDy=0;endFill=0;startArrow=classic;startFill=1;" parent="WIyWlLk6GJQsqaUBKTNV-1" target="R1HSc_Sz26Aq6x33Aut7-240" edge="1">
          <mxGeometry width="50" height="50" relative="1" as="geometry">
            <mxPoint x="605" y="4929" as="sourcePoint" />
            <mxPoint x="225" y="4928.57" as="targetPoint" />
          </mxGeometry>
        </mxCell>
        <mxCell id="R1HSc_Sz26Aq6x33Aut7-240" value="{" style="ellipse;whiteSpace=wrap;html=1;labelBackgroundColor=none;fillColor=#EEEEEE;strokeColor=#FFFFFF;fontColor=#1A1A1A;" parent="WIyWlLk6GJQsqaUBKTNV-1" vertex="1">
          <mxGeometry x="265" y="4900" width="80" height="60" as="geometry" />
        </mxCell>
        <mxCell id="R1HSc_Sz26Aq6x33Aut7-242" value="}" style="ellipse;whiteSpace=wrap;html=1;labelBackgroundColor=none;fillColor=#EEEEEE;strokeColor=#FFFFFF;fontColor=#1A1A1A;" parent="WIyWlLk6GJQsqaUBKTNV-1" vertex="1">
          <mxGeometry x="390" y="4900" width="80" height="60" as="geometry" />
        </mxCell>
        <mxCell id="-5ZrnQzwCX1gNfyooeKi-0" value="!=" style="ellipse;whiteSpace=wrap;html=1;labelBackgroundColor=none;fillColor=#EEEEEE;strokeColor=#FFFFFF;fontColor=#1A1A1A;" vertex="1" parent="WIyWlLk6GJQsqaUBKTNV-1">
          <mxGeometry x="510" y="3170" width="80" height="60" as="geometry" />
        </mxCell>
        <mxCell id="-5ZrnQzwCX1gNfyooeKi-1" value="==" style="ellipse;whiteSpace=wrap;html=1;labelBackgroundColor=none;fillColor=#EEEEEE;strokeColor=#FFFFFF;fontColor=#1A1A1A;" vertex="1" parent="WIyWlLk6GJQsqaUBKTNV-1">
          <mxGeometry x="510" y="3250" width="80" height="60" as="geometry" />
        </mxCell>
        <mxCell id="-5ZrnQzwCX1gNfyooeKi-2" value="&amp;gt;" style="ellipse;whiteSpace=wrap;html=1;labelBackgroundColor=none;fillColor=#EEEEEE;strokeColor=#FFFFFF;fontColor=#1A1A1A;" vertex="1" parent="WIyWlLk6GJQsqaUBKTNV-1">
          <mxGeometry x="545" y="3390" width="80" height="60" as="geometry" />
        </mxCell>
        <mxCell id="-5ZrnQzwCX1gNfyooeKi-3" value="&amp;lt;" style="ellipse;whiteSpace=wrap;html=1;labelBackgroundColor=none;fillColor=#EEEEEE;strokeColor=#FFFFFF;fontColor=#1A1A1A;" vertex="1" parent="WIyWlLk6GJQsqaUBKTNV-1">
          <mxGeometry x="542.5" y="3450" width="80" height="60" as="geometry" />
        </mxCell>
        <mxCell id="-5ZrnQzwCX1gNfyooeKi-4" value="&amp;gt;=" style="ellipse;whiteSpace=wrap;html=1;labelBackgroundColor=none;fillColor=#EEEEEE;strokeColor=#FFFFFF;fontColor=#1A1A1A;" vertex="1" parent="WIyWlLk6GJQsqaUBKTNV-1">
          <mxGeometry x="545" y="3530" width="80" height="60" as="geometry" />
        </mxCell>
        <mxCell id="-5ZrnQzwCX1gNfyooeKi-5" value="&amp;lt;=" style="ellipse;whiteSpace=wrap;html=1;labelBackgroundColor=none;fillColor=#EEEEEE;strokeColor=#FFFFFF;fontColor=#1A1A1A;" vertex="1" parent="WIyWlLk6GJQsqaUBKTNV-1">
          <mxGeometry x="547" y="3590" width="80" height="60" as="geometry" />
        </mxCell>
        <mxCell id="-5ZrnQzwCX1gNfyooeKi-6" value="+" style="ellipse;whiteSpace=wrap;html=1;labelBackgroundColor=none;fillColor=#EEEEEE;strokeColor=#FFFFFF;fontColor=#1A1A1A;" vertex="1" parent="WIyWlLk6GJQsqaUBKTNV-1">
          <mxGeometry x="572" y="3760" width="80" height="60" as="geometry" />
        </mxCell>
        <mxCell id="-5ZrnQzwCX1gNfyooeKi-7" value="-" style="ellipse;whiteSpace=wrap;html=1;labelBackgroundColor=none;fillColor=#EEEEEE;strokeColor=#FFFFFF;fontColor=#1A1A1A;" vertex="1" parent="WIyWlLk6GJQsqaUBKTNV-1">
          <mxGeometry x="575" y="3840" width="80" height="60" as="geometry" />
        </mxCell>
        <mxCell id="-5ZrnQzwCX1gNfyooeKi-8" value="%" style="ellipse;whiteSpace=wrap;html=1;labelBackgroundColor=none;fillColor=#EEEEEE;strokeColor=#FFFFFF;fontColor=#1A1A1A;" vertex="1" parent="WIyWlLk6GJQsqaUBKTNV-1">
          <mxGeometry x="575" y="3950" width="80" height="60" as="geometry" />
        </mxCell>
        <mxCell id="-5ZrnQzwCX1gNfyooeKi-9" value="*" style="ellipse;whiteSpace=wrap;html=1;labelBackgroundColor=none;fillColor=#EEEEEE;strokeColor=#FFFFFF;fontColor=#1A1A1A;" vertex="1" parent="WIyWlLk6GJQsqaUBKTNV-1">
          <mxGeometry x="572" y="4020" width="80" height="60" as="geometry" />
        </mxCell>
        <mxCell id="-5ZrnQzwCX1gNfyooeKi-10" value="/" style="ellipse;whiteSpace=wrap;html=1;labelBackgroundColor=none;fillColor=#EEEEEE;strokeColor=#FFFFFF;fontColor=#1A1A1A;" vertex="1" parent="WIyWlLk6GJQsqaUBKTNV-1">
          <mxGeometry x="575" y="4100" width="80" height="60" as="geometry" />
        </mxCell>
        <mxCell id="-5ZrnQzwCX1gNfyooeKi-11" value="+" style="ellipse;whiteSpace=wrap;html=1;labelBackgroundColor=none;fillColor=#EEEEEE;strokeColor=#FFFFFF;fontColor=#1A1A1A;" vertex="1" parent="WIyWlLk6GJQsqaUBKTNV-1">
          <mxGeometry x="575" y="4220" width="80" height="60" as="geometry" />
        </mxCell>
        <mxCell id="-5ZrnQzwCX1gNfyooeKi-12" value="-" style="ellipse;whiteSpace=wrap;html=1;labelBackgroundColor=none;fillColor=#EEEEEE;strokeColor=#FFFFFF;fontColor=#1A1A1A;" vertex="1" parent="WIyWlLk6GJQsqaUBKTNV-1">
          <mxGeometry x="575" y="4300" width="80" height="60" as="geometry" />
        </mxCell>
        <mxCell id="-5ZrnQzwCX1gNfyooeKi-13" value=")" style="ellipse;whiteSpace=wrap;html=1;labelBackgroundColor=none;fillColor=#EEEEEE;strokeColor=#FFFFFF;fontColor=#1A1A1A;" vertex="1" parent="WIyWlLk6GJQsqaUBKTNV-1">
          <mxGeometry x="360" y="4610" width="80" height="60" as="geometry" />
        </mxCell>
        <mxCell id="-5ZrnQzwCX1gNfyooeKi-14" value="(" style="ellipse;whiteSpace=wrap;html=1;labelBackgroundColor=none;fillColor=#EEEEEE;strokeColor=#FFFFFF;fontColor=#1A1A1A;" vertex="1" parent="WIyWlLk6GJQsqaUBKTNV-1">
          <mxGeometry x="80" y="4610" width="80" height="60" as="geometry" />
        </mxCell>
      </root>
    </mxGraphModel>
  </diagram>
</mxfile>
